<svg width="24" height="24" viewBox="0 0 24 24" fill="none" xmlns="http://www.w3.org/2000/svg">
<g clip-path="url(#clip0_24_141)">
<path fill-rule="evenodd" clip-rule="evenodd" d="M5.63633 18.3639C5.92922 18.6568 6.4041 18.6568 6.69699 18.3639L17.0839 7.97694L17.0839 16.4193C17.0839 16.8335 17.4197 17.1693 17.8339 17.1693C18.2481 17.1693 18.5839 16.8335 18.5839 16.4193L18.5839 6.16628C18.5839 5.96737 18.5049 5.7766 18.3643 5.63595C18.2236 5.49529 18.0328 5.41628 17.8339 5.41628L7.58089 5.41629C7.16668 5.41629 6.83089 5.75208 6.83089 6.16629C6.83089 6.58051 7.16668 6.91629 7.58089 6.91629L16.0233 6.91628L5.63633 17.3032C5.34344 17.5961 5.34344 18.071 5.63633 18.3639Z" fill="#D4903B"/>
</g>
<defs>
<clipPath id="clip0_24_141">
<rect width="24" height="24" fill="white" transform="matrix(1 0 0 -1 0 24)"/>
</clipPath>
</defs>
</svg>
