<svg width="69" height="46" viewBox="0 0 69 46" fill="none" xmlns="http://www.w3.org/2000/svg">
<g opacity="0.1">
<path d="M0 0H14.3184C25.1122 15.3298 35.9059 30.6702 46.6996 46H30.7341C27.3851 40.9963 24.0361 35.982 20.6871 30.9783C14.3843 30.957 8.08157 30.9783 1.77882 30.9677C1.77882 27.3132 1.77882 23.6587 1.77882 20.0042C5.63294 20.0042 9.49804 20.0042 13.3522 20.0042C8.89412 13.3432 4.45804 6.67159 0 0Z" fill="white"/>
<path d="M20.3359 0H35.6975C35.7195 0.0424942 35.7634 0.138106 35.7853 0.191224C35.7963 6.35289 35.7853 12.5146 35.7963 18.6762C40.8473 12.897 45.9093 7.11778 50.9822 1.34919C51.3885 0.903002 51.7618 0.424942 52.201 0H67.7054C67.6175 0.244342 67.4089 0.414319 67.2332 0.605543C61.5673 6.84157 55.8904 13.067 50.2136 19.303C50.0599 19.473 49.9061 19.643 49.7634 19.8236C55.9783 28.5455 62.1493 37.2781 68.3532 46H52.5414C50.3454 42.8554 48.1383 39.7109 45.9422 36.5663C43.9657 33.7617 42.0332 30.9358 40.0238 28.1524C34.9838 20.9497 29.9548 13.7469 24.9148 6.54411C23.3446 4.38753 21.8622 2.17783 20.3359 0Z" fill="white"/>
</g>
</svg>
