<svg width="24" height="24" viewBox="0 0 24 24" fill="none" xmlns="http://www.w3.org/2000/svg">
<path fill-rule="evenodd" clip-rule="evenodd" d="M8 2C4.68629 2 2 4.68629 2 8V16C2 19.3137 4.68629 22 8 22H16C19.3137 22 22 19.3137 22 16V8C22 4.68629 19.3137 2 16 2H8ZM14.1 12C14.1 13.1598 13.1598 14.1 12 14.1C10.8402 14.1 9.9 13.1598 9.9 12C9.9 10.8402 10.8402 9.9 12 9.9C13.1598 9.9 14.1 10.8402 14.1 12ZM15.5 12C15.5 13.933 13.933 15.5 12 15.5C10.067 15.5 8.5 13.933 8.5 12C8.5 10.067 10.067 8.5 12 8.5C13.933 8.5 15.5 10.067 15.5 12ZM16.9 8.14977C16.9 8.72967 16.4299 9.19977 15.85 9.19977C15.2701 9.19977 14.8 8.72967 14.8 8.14977C14.8 7.56987 15.2701 7.09977 15.85 7.09977C16.4299 7.09977 16.9 7.56987 16.9 8.14977ZM7.8 5C6.2536 5 5 6.2536 5 7.8V16.2C5 17.7464 6.2536 19 7.8 19H16.2C17.7464 19 19 17.7464 19 16.2V7.8C19 6.2536 17.7464 5 16.2 5H7.8ZM6.4 7.8C6.4 7.0268 7.0268 6.4 7.8 6.4H16.2C16.9732 6.4 17.6 7.0268 17.6 7.8V16.2C17.6 16.9732 16.9732 17.6 16.2 17.6H7.8C7.0268 17.6 6.4 16.9732 6.4 16.2V7.8Z" fill="#D4903B"/>
</svg>
