<svg width="140" height="46" viewBox="0 0 140 46" fill="none" xmlns="http://www.w3.org/2000/svg">
<path d="M0 0H14.3184C25.1122 15.3298 35.9059 30.6702 46.6996 46H30.7341C27.3851 40.9963 24.0361 35.982 20.6871 30.9783C14.3843 30.957 8.08157 30.9783 1.77882 30.9677C1.77882 27.3132 1.77882 23.6587 1.77882 20.0042C5.63294 20.0042 9.49804 20.0042 13.3522 20.0042C8.89412 13.3432 4.45804 6.67159 0 0Z" fill="white"/>
<path d="M20.3359 0H35.6975C35.7195 0.0424942 35.7634 0.138106 35.7853 0.191224C35.7963 6.35289 35.7853 12.5146 35.7963 18.6762C40.8473 12.897 45.9093 7.11778 50.9822 1.34919C51.3885 0.903002 51.7618 0.424942 52.201 0H67.7054C67.6175 0.244342 67.4089 0.414319 67.2332 0.605543C61.5673 6.84157 55.8904 13.067 50.2136 19.303C50.0599 19.473 49.9061 19.643 49.7634 19.8236C55.9783 28.5455 62.1493 37.2781 68.3532 46H52.5414C50.3454 42.8554 48.1383 39.7109 45.9422 36.5663C43.9657 33.7617 42.0332 30.9358 40.0238 28.1524C34.9838 20.9497 29.9548 13.7469 24.9148 6.54411C23.3446 4.38753 21.8622 2.17783 20.3359 0Z" fill="white"/>
<path d="M82.6279 11.0167C83.7589 11.0273 84.8899 10.9954 86.0209 11.0273C86.0099 15.213 86.0209 19.3987 86.0209 23.5843C84.8899 23.5843 83.7589 23.5843 82.6279 23.5843C82.6279 19.3987 82.6279 15.2023 82.6279 11.0167Z" fill="white"/>
<path d="M115.162 11.0272C116.337 11.006 117.512 11.0272 118.687 11.0166C118.687 11.824 118.687 12.6314 118.687 13.4281C117.512 13.4175 116.326 13.4494 115.151 13.4069C115.173 12.6208 115.162 11.824 115.162 11.0272Z" fill="white"/>
<path d="M89.2483 14.5755C90.3463 14.0231 91.642 13.9594 92.8389 14.1931C93.8711 14.3949 94.8154 14.9792 95.3973 15.8291C96.2538 16.9871 96.4734 18.4531 96.3746 19.8448C94.2334 19.8448 92.0812 19.8448 89.9401 19.8448C90.1048 20.5035 90.5989 21.1196 91.3016 21.279C92.3338 21.5658 93.4209 21.1303 94.1456 20.4185C94.7714 20.9284 95.4083 21.4065 96.0122 21.9377C95.2436 22.8725 94.1346 23.5418 92.9048 23.733C91.2138 24.0092 89.3252 23.6587 88.0844 22.4582C86.8656 21.3534 86.4812 19.6111 86.7338 18.0494C86.9534 16.594 87.8977 15.2554 89.2483 14.5755ZM90.522 16.8702C90.1597 17.2102 89.962 17.6882 89.8742 18.1557C90.9832 18.1557 92.1032 18.1557 93.2122 18.1557C93.1573 17.7201 93.0036 17.2739 92.6852 16.9446C92.1471 16.3603 91.093 16.3178 90.522 16.8702Z" fill="white"/>
<path d="M109.101 14.108C110.594 13.9274 112.274 14.2249 113.329 15.3404C114.493 16.5302 114.833 18.2406 114.701 19.8341C112.56 19.8341 110.408 19.8341 108.267 19.8341C108.431 20.4928 108.925 21.1196 109.639 21.2683C110.671 21.5552 111.758 21.1196 112.483 20.4078C113.109 20.9177 113.746 21.3958 114.35 21.9164C113.581 22.8512 112.472 23.5311 111.242 23.7117C109.76 23.9455 108.124 23.733 106.905 22.83C105.917 22.1288 105.247 21.0346 105.082 19.866C104.852 18.4743 105.126 16.9552 106.049 15.8291C106.773 14.9048 107.893 14.2461 109.101 14.108ZM108.914 16.817C108.508 17.157 108.311 17.6563 108.212 18.1556C109.321 18.1556 110.441 18.1556 111.55 18.1556C111.495 17.7201 111.341 17.2739 111.023 16.9445C110.496 16.3815 109.496 16.3177 108.914 16.817Z" fill="white"/>
<path d="M73.1184 14.8517C74.7654 14.2037 76.5882 13.9912 78.3451 14.2249C79.3552 14.3737 80.3764 14.7986 80.9913 15.6166C81.5623 16.3815 81.716 17.3589 81.716 18.2831C81.716 20.0467 81.716 21.8208 81.716 23.5843C81.0023 23.6055 80.2886 23.5843 79.5639 23.5949C79.5639 25.2734 79.5639 26.9626 79.5639 28.6411C80.4313 27.6106 81.2988 26.5801 82.1552 25.539C83.4399 25.5178 84.7137 25.539 85.9984 25.5284C84.9003 26.7926 83.7474 28.0143 82.6603 29.2892C83.8133 31.1376 84.9443 32.9968 86.0862 34.8453C84.8564 34.8453 83.6266 34.8559 82.3968 34.8453L82.3419 34.8134C81.705 33.7723 81.0682 32.7312 80.4203 31.6901C80.1349 32.0088 79.8494 32.3275 79.5639 32.6462C79.52 33.3792 79.5639 34.1122 79.5419 34.8453C78.4109 34.8453 77.2909 34.8453 76.16 34.8453C76.16 31.1483 76.16 27.4513 76.16 23.7437C75.1827 23.8605 74.1066 23.733 73.316 23.1275C72.7341 22.7132 72.3827 22.0439 72.3058 21.3534C72.207 20.5353 72.3498 19.643 72.9427 19.0162C73.5796 18.3363 74.5349 18.0494 75.4572 17.9751C76.4345 17.9007 77.4227 18.0069 78.356 18.3044C78.367 17.8901 78.3011 17.4333 77.9717 17.1252C77.6094 16.764 77.0603 16.679 76.5662 16.6577C75.6109 16.6365 74.6666 16.8383 73.7882 17.1677C73.5796 16.4028 73.349 15.6273 73.1184 14.8517ZM76.2258 19.7067C75.545 19.9617 75.3254 20.939 75.8525 21.4277C76.4235 21.9058 77.3568 21.7995 77.9168 21.3427C78.4 20.9603 78.4658 20.3229 78.4109 19.7598C77.7192 19.5367 76.9176 19.4199 76.2258 19.7067Z" fill="white"/>
<path d="M95.6721 14.2675C96.8799 14.2569 98.0988 14.2781 99.3066 14.2569C99.8117 15.0111 100.262 15.7867 100.745 16.5409C101.206 15.7867 101.689 15.043 102.14 14.2781C103.336 14.2356 104.544 14.2675 105.741 14.2569C104.687 15.7973 103.622 17.3164 102.579 18.8569C103.655 20.4291 104.742 22.0014 105.818 23.5737C104.61 23.5737 103.391 23.5737 102.183 23.5737C101.689 22.7876 101.195 21.9908 100.701 21.194C100.174 21.9696 99.6909 22.777 99.1858 23.5737C97.9999 23.5843 96.8031 23.5737 95.6172 23.5737C96.6933 22.0014 97.7803 20.4398 98.8564 18.8781C97.8023 17.3483 96.7262 15.8185 95.6721 14.2675Z" fill="white"/>
<path d="M115.25 14.2675C116.37 14.2781 117.501 14.2675 118.621 14.2675C118.632 21.1303 118.621 27.9825 118.621 34.8453C117.49 34.8453 116.359 34.8453 115.229 34.8453C115.239 27.9931 115.218 21.1303 115.25 14.2675Z" fill="white"/>
<path d="M89.9184 25.3479C91.1482 25.2522 92.4439 25.4753 93.4871 26.1552C94.7169 26.9308 95.6063 28.2268 95.738 29.661C95.9028 31.0208 95.4526 32.4444 94.4643 33.443C92.4439 35.6421 88.4251 35.6527 86.4047 33.4324C85.2408 32.2532 84.8675 30.479 85.2957 28.928C85.8557 26.9414 87.8212 25.4541 89.9184 25.3479ZM89.7208 28.2162C88.8314 28.5243 88.3482 29.5017 88.4361 30.3728C88.48 31.2014 89.0949 32.0088 89.9404 32.2213C90.5773 32.3806 91.3239 32.2532 91.8071 31.807C92.6965 30.989 92.7075 29.4485 91.8071 28.6305C91.28 28.11 90.4235 27.9825 89.7208 28.2162Z" fill="white"/>
<path d="M124.068 25.3478C125.561 25.2204 127.142 25.6134 128.251 26.612C129.36 27.5363 129.986 28.9599 129.909 30.3834C129.887 31.8813 129.031 33.2836 127.79 34.1335C126.538 35.0153 124.88 35.2384 123.376 34.9622C121.949 34.7072 120.686 33.8254 119.939 32.6356C119.225 31.4883 119.094 30.0541 119.478 28.7793C120.093 26.867 122.014 25.4541 124.068 25.3478ZM123.859 28.2162C123.08 28.4818 122.596 29.2892 122.574 30.0647C122.509 30.8721 122.959 31.7007 123.705 32.0832C124.441 32.4444 125.429 32.3381 126.011 31.7538C126.846 30.9252 126.835 29.4273 125.945 28.6305C125.418 28.11 124.562 27.9825 123.859 28.2162Z" fill="white"/>
<path d="M105.73 26.1127C107.377 25.4647 109.2 25.2522 110.957 25.4859C112.044 25.6347 113.153 26.134 113.735 27.0688C114.35 28.025 114.339 29.1829 114.328 30.2772C114.328 31.7963 114.328 33.3155 114.328 34.8453C113.208 34.8772 112.088 34.8453 110.979 34.8559C110.979 34.5372 110.979 34.2185 110.979 33.8998C110.43 34.4841 109.683 34.8984 108.87 35.0046C107.794 35.164 106.586 34.9834 105.774 34.2504C104.928 33.5067 104.764 32.2744 105.038 31.2439C105.258 30.394 106.015 29.7778 106.839 29.5016C108.179 29.0661 109.661 29.1617 111 29.576C111.011 29.1617 110.946 28.7049 110.627 28.3968C110.265 28.0356 109.716 27.94 109.211 27.9293C108.255 27.9081 107.311 28.11 106.433 28.4393C106.191 27.6638 105.96 26.8882 105.73 26.1127ZM108.695 31.0421C108.036 31.3926 107.97 32.4656 108.651 32.8268C109.397 33.2093 110.473 32.9437 110.858 32.1894C111.044 31.8388 111.022 31.4245 111.011 31.0421C110.287 30.7871 109.408 30.6596 108.695 31.0421Z" fill="white"/>
<path d="M95.002 25.5497C96.1878 25.5072 97.3737 25.539 98.5596 25.5284C99.1855 27.3238 99.7894 29.1298 100.404 30.9252C101.063 29.1404 101.634 27.3238 102.26 25.5284C103.435 25.5178 104.599 25.5284 105.774 25.5284C104.489 28.6517 103.215 31.7857 101.931 34.909C100.898 34.909 99.8772 34.909 98.8451 34.909C97.5604 31.7963 96.2867 28.6624 95.002 25.5497Z" fill="white"/>
<path d="M129.151 25.5284C130.337 25.5284 131.523 25.5284 132.709 25.5284C133.335 27.3238 133.939 29.1298 134.554 30.9252C135.202 29.1404 135.784 27.3344 136.398 25.5284C137.573 25.5072 138.748 25.5178 139.923 25.5178C138.638 28.6411 137.365 31.7751 136.08 34.8984C135.048 34.8984 134.027 34.8984 132.995 34.8984C131.71 31.7857 130.425 28.6624 129.151 25.5284Z" fill="white"/>
</svg>
