<svg width="40" height="40" viewBox="0 0 40 40" fill="none" xmlns="http://www.w3.org/2000/svg">
<path d="M19.5094 0H20.2047C23.3367 0.0304687 26.4633 0.79375 29.2391 2.25078C33.2703 4.35156 36.5523 7.8625 38.357 12.0375C39.393 14.4125 39.9359 16.9914 40 19.5797V20.1953C39.9625 24.0867 38.7492 27.9555 36.5594 31.1719C36.1992 31.6664 35.5305 31.9031 34.9391 31.7508C34.3406 31.6102 33.8563 31.0867 33.7695 30.4773C33.6969 30.0625 33.8195 29.6352 34.0586 29.2945C35.7461 26.7539 36.7359 23.7516 36.8578 20.7023C36.9437 18.5844 36.6352 16.4492 35.9328 14.4477C35.1609 12.2305 33.9133 10.182 32.307 8.47031C30.4133 6.44375 28.0141 4.89141 25.3836 4.00781C22.9367 3.17734 20.2953 2.93594 17.7359 3.27969C15.3602 3.59844 13.0562 4.43672 11.0297 5.71641C8.89141 7.06094 7.06094 8.89141 5.71563 11.0289C4.09844 13.5828 3.19453 16.582 3.13359 19.6055C3.0625 22.4125 3.70859 25.2352 5.00469 27.7273C7.10156 31.8164 10.9359 34.9758 15.3625 36.2211C19.7398 37.4945 24.6258 36.8805 28.5469 34.5508C28.8641 34.3469 29.2297 34.1898 29.6156 34.2203C30.268 34.2445 30.8687 34.7203 31.0398 35.35C31.2352 35.9953 30.9516 36.7445 30.3773 37.0977C27.307 38.9734 23.7195 39.9766 20.1242 40H19.8023C16.5758 39.968 13.3562 39.1578 10.5188 37.6172C6.1375 35.2633 2.68438 31.2242 1.07969 26.5125C0.410937 24.5766 0.0625 22.5367 0 20.4914V19.5266C0.065625 17.1969 0.5125 14.8734 1.36719 12.7023C2.96016 8.61016 5.96094 5.09297 9.72266 2.83516C12.6648 1.05625 16.0766 0.0898438 19.5094 0Z" fill="#D4903B"/>
<path d="M16.0493 12.2422C16.6243 12.1328 17.2282 12.1836 17.7766 12.3875C18.1383 12.5172 18.461 12.7304 18.7938 12.9179C21.2157 14.3218 23.6383 15.7226 26.0594 17.1281C26.7524 17.5179 27.3016 18.1625 27.5547 18.9187C27.8954 19.9047 27.7446 21.0515 27.1352 21.9015C26.8469 22.3133 26.4586 22.6492 26.0219 22.8945C23.4438 24.3875 20.8672 25.8828 18.2876 27.3734C17.4391 27.8695 16.3649 27.9531 15.4532 27.5836C14.2461 27.125 13.3751 25.9086 13.3618 24.6125C13.3555 21.5898 13.3618 18.5672 13.3594 15.5453C13.3454 14.7718 13.6047 13.9953 14.0985 13.3984C14.5891 12.8031 15.2915 12.3867 16.0493 12.2422ZM16.5368 15.3625C16.4485 15.4484 16.4985 15.5929 16.4829 15.7023C16.4868 18.6234 16.4821 21.5437 16.4852 24.464C16.4469 24.6179 16.6329 24.7586 16.7594 24.6468C19.1852 23.2484 21.6047 21.8398 24.0282 20.4375C24.2079 20.3312 24.3969 20.2398 24.5649 20.1148C24.6665 20.0133 24.5844 19.8578 24.4665 19.8156C21.9157 18.3383 19.3649 16.8593 16.8133 15.3812C16.7282 15.3289 16.618 15.2695 16.5368 15.3625Z" fill="#D4903B"/>
</svg>
