<svg width="70" height="14" viewBox="0 0 70 14" fill="none" xmlns="http://www.w3.org/2000/svg">
<path d="M0 4.03145H2.27728L4.16917 9.56547L6.16617 4.03145H7.56757L9.52953 9.49217L11.3864 4.03145H13.6987L10.3003 13.7801H8.82883L6.83183 8.2461L4.7998 13.7801H3.36336L0 4.03145ZM15.0651 0.256592H17.3774V4.98433C17.8328 4.58119 18.2883 4.25135 18.7437 4.0681C19.1992 3.84821 19.6897 3.77491 20.1451 3.77491C21.0561 3.77491 21.8619 4.10475 22.4925 4.76443C23.018 5.35082 23.2983 6.19375 23.2983 7.32987V13.7801H20.986V9.49217C20.986 8.35605 20.9509 7.58642 20.8458 7.21992C20.7407 6.81678 20.5656 6.52359 20.3203 6.34035C20.0751 6.1571 19.7598 6.0105 19.4094 6.0105C18.9189 6.0105 18.5335 6.1571 18.1832 6.48694C17.8328 6.81678 17.6226 7.25657 17.4825 7.84296C17.4124 8.13615 17.3774 8.79584 17.3774 9.85866V13.7801H15.0651V0.256592ZM27.6426 5.24087C27.6426 4.58119 27.1171 4.03145 26.4865 4.03145C25.8559 4.03145 25.3303 4.58119 25.3303 5.24087V13.7435H27.6777L27.6426 5.24087ZM44.3193 9.60212H36.8218C36.9269 10.2985 37.2072 10.8482 37.6977 11.2513C38.1531 11.6545 38.7838 11.8744 39.4845 11.8744C40.3604 11.8744 41.0961 11.5445 41.7267 10.9215L43.6887 11.8744C43.1982 12.6073 42.6026 13.1571 41.9369 13.4869C41.2362 13.8534 40.4304 14 39.4845 14C38.013 14 36.8218 13.5236 35.9109 12.5707C35 11.6178 34.5445 10.4084 34.5445 8.94243C34.5445 7.43982 35 6.2304 35.9109 5.24087C36.8218 4.25135 37.978 3.77491 39.3443 3.77491C40.8158 3.77491 42.007 4.25135 42.9179 5.24087C43.8288 6.2304 44.2843 7.51312 44.2843 9.12568L44.3193 9.60212ZM42.007 7.65971C41.8669 7.10998 41.5515 6.67019 41.0961 6.34035C40.6406 6.0105 40.1151 5.82726 39.5195 5.82726C38.8538 5.82726 38.2933 6.0105 37.8028 6.41364C37.4875 6.67019 37.2072 7.07333 36.962 7.65971H42.007ZM32.3724 4.03145V0.439837H30.025V2.89533V4.03145V6.12045V7.62306V13.7435H32.3724V6.12045H33.7738V4.03145H32.3724Z" fill="white"/>
<path d="M26.4515 0C26.8719 0 27.2222 0.146596 27.5025 0.476438C27.8178 0.769631 27.958 1.17277 27.958 1.61256C27.958 2.05235 27.8178 2.41884 27.5375 2.71203C27.2573 3.00523 26.9069 3.18847 26.4865 3.18847C26.0661 3.18847 25.7157 3.04188 25.4354 2.71203C25.1552 2.38219 24.98 2.0157 24.98 1.57591C24.98 1.13612 25.1201 0.769631 25.4004 0.476438C25.7157 0.146596 26.0661 0 26.4515 0Z" fill="white"/>
<path d="M59.2443 0.586548H61.6266V13.7436H59.2443V0.586548ZM63.0631 0.586548H70V3.04204H67.7227V13.7436H65.3053V3.04204H63.0631V0.586548Z" fill="white"/>
<path d="M51.6766 5.42404L51.4314 5.90048C51.3963 5.97378 51.3963 6.01043 51.3613 6.04708C51.3613 6.08373 51.3613 6.12038 51.3613 6.15703C51.3613 6.23032 51.3963 6.30362 51.4314 6.37692C51.5014 6.45022 51.5715 6.48687 51.6416 6.48687C51.7116 6.48687 51.7817 6.45022 51.8518 6.41357C51.9219 6.34027 51.9219 6.26697 51.9219 6.19367C51.9219 6.12038 51.8868 6.04708 51.8518 5.97378C51.8168 5.93713 51.7467 5.90048 51.7116 5.90048L51.8518 5.60729L51.6766 5.42404ZM51.7467 6.12038C51.7467 6.15703 51.7467 6.15702 51.7116 6.19367C51.6766 6.23032 51.6416 6.23032 51.6065 6.19367C51.6065 6.19367 51.5715 6.15703 51.5715 6.12038C51.5715 6.08373 51.5715 6.08373 51.6065 6.04708L51.6416 6.01043C51.6766 6.01043 51.6766 6.01043 51.7116 6.04708C51.7116 6.08373 51.7467 6.08373 51.7467 6.12038ZM52.7627 1.75913L52.3773 2.34552V2.56541H52.7277V2.74866H52.9379V2.56541H53.0079V2.34552H52.9379V1.75913H52.7627ZM52.6576 2.34552L52.7627 2.19892V2.34552H52.6576ZM47.8578 10.0052L48.1731 9.3455H47.8578V9.1256H48.4884V9.2722L48.103 10.1151L47.8578 10.0052ZM51.7116 12.2774C51.7467 12.2408 51.7467 12.2408 51.7467 12.2041C51.7467 12.1675 51.7467 12.1308 51.7116 12.1308C51.6766 12.0942 51.6416 12.0942 51.6065 12.1308L51.5715 12.1675L51.3963 12.1308L51.5014 11.5811H51.9569V11.801H51.6766V11.8743C51.7467 11.8743 51.8518 11.9109 51.8868 11.9842C51.9569 12.0575 51.9569 12.1308 51.9569 12.2041C51.9569 12.3141 51.9219 12.3874 51.8518 12.4607C51.7817 12.534 51.7116 12.5706 51.6065 12.5706C51.5365 12.5706 51.4664 12.534 51.3963 12.4973C51.3263 12.4607 51.2912 12.3874 51.2912 12.3141V12.2774H51.5365V12.3141C51.5365 12.3507 51.5715 12.3507 51.5715 12.3507C51.6416 12.3507 51.6766 12.3141 51.7116 12.2774ZM51.6065 7.54969C51.6766 7.47639 51.6766 7.40309 51.6766 7.3298C51.6766 7.2565 51.6416 7.1832 51.6065 7.1099C51.5715 7.07325 51.5014 7.0366 51.4664 7.0366L51.6065 6.74341L51.3963 6.63346L51.1511 7.1099C51.116 7.1832 51.116 7.21985 51.081 7.2565C51.081 7.29315 51.081 7.3298 51.081 7.36645C51.081 7.43974 51.116 7.51304 51.1511 7.58634C51.2212 7.65964 51.2912 7.69629 51.3613 7.69629C51.4664 7.65964 51.5365 7.62299 51.6065 7.54969ZM51.3263 7.3298C51.3263 7.29315 51.3263 7.29315 51.3613 7.2565L51.3963 7.21985C51.4314 7.21985 51.4314 7.21985 51.4664 7.2565C51.4664 7.2565 51.5014 7.29315 51.5014 7.3298C51.5014 7.36645 51.5014 7.36645 51.4664 7.40309C51.4314 7.43974 51.3963 7.43974 51.3613 7.40309C51.3263 7.40309 51.3263 7.36645 51.3263 7.3298ZM56.2312 10.0785V9.89523H56.3012V9.67534H56.2312V9.1256H56.021L55.6356 9.71199V9.93188H55.9859V10.1151H56.2312V10.0785ZM55.9158 9.67534L56.021 9.52874V9.67534H55.9158ZM50.9409 7.62299C50.9759 7.58634 51.0109 7.54969 51.046 7.51304C51.081 7.47639 51.081 7.4031 51.081 7.36645C51.081 7.3298 51.081 7.2565 51.046 7.21985C51.046 7.1832 51.0109 7.14655 50.9759 7.14655C51.0109 7.1099 51.0109 7.1099 51.0109 7.07325C51.0109 7.0366 51.046 6.99995 51.046 6.9633C51.046 6.92666 51.046 6.85336 51.0109 6.81671C50.9759 6.78006 50.9409 6.74341 50.9058 6.70676C50.8358 6.67011 50.6956 6.67011 50.6256 6.70676C50.5905 6.74341 50.5555 6.78006 50.5205 6.81671C50.4854 6.85336 50.4854 6.89001 50.4854 6.9633C50.4854 6.99995 50.4854 7.0366 50.5205 7.07325C50.5205 7.1099 50.5555 7.1099 50.5555 7.14655C50.5204 7.1832 50.5205 7.21985 50.4854 7.21985C50.4504 7.2565 50.4504 7.3298 50.4504 7.36645C50.4504 7.43974 50.4504 7.47639 50.4854 7.51304C50.5205 7.54969 50.5555 7.58634 50.5905 7.62299C50.6256 7.65964 50.6956 7.65964 50.7657 7.65964C50.8358 7.65964 50.8708 7.65964 50.9409 7.62299ZM50.8007 6.99996C50.7657 7.0366 50.7307 7.0366 50.7307 6.99996V6.9633C50.7307 6.92666 50.7307 6.92666 50.7307 6.92666H50.7657C50.8007 6.92666 50.8007 6.92666 50.8007 6.92666V6.9633V6.99996ZM50.6956 7.29315C50.7307 7.2565 50.7307 7.2565 50.7657 7.2565C50.8007 7.2565 50.8007 7.2565 50.8358 7.29315C50.8708 7.29315 50.8708 7.3298 50.8708 7.36645C50.8708 7.4031 50.8708 7.4031 50.8358 7.43974C50.8007 7.47639 50.7307 7.47639 50.6956 7.43974C50.6606 7.43974 50.6606 7.4031 50.6606 7.36645C50.6606 7.3298 50.6606 7.29315 50.6956 7.29315ZM52.8678 12.534V11.801H52.6926L52.8328 11.5811H53.113V12.534H52.8678ZM50.1 11.8743C50.065 11.9109 50.03 11.9842 50.03 12.0575C50.03 12.0942 50.03 12.1675 50.065 12.2041C50.1 12.2408 50.1 12.2774 50.1701 12.3141C50.2402 12.3507 50.3453 12.3507 50.4153 12.3141C50.4504 12.3141 50.4854 12.2774 50.5205 12.2041L50.5555 12.1675L50.6956 12.3507L50.6606 12.3874C50.5905 12.4607 50.5205 12.4973 50.4854 12.534C50.4153 12.5706 50.3453 12.5706 50.2752 12.5706C50.1351 12.5706 50.03 12.534 49.9249 12.424C49.8198 12.3141 49.7847 12.2041 49.7847 12.0575C49.7847 11.9476 49.8197 11.8743 49.8548 11.801C49.8898 11.7277 49.9599 11.6544 50.03 11.6177C50.1701 11.5444 50.3453 11.5444 50.4854 11.6177C50.5555 11.6544 50.6256 11.691 50.6606 11.7643L50.6956 11.801L50.5205 11.9476L50.4854 11.9109C50.4153 11.8376 50.3453 11.801 50.2402 11.801C50.2051 11.801 50.1351 11.801 50.1 11.8743ZM51.0109 12.534C51.081 12.534 51.1511 12.4973 51.2212 12.4607C51.2912 12.3874 51.2912 12.3141 51.2912 12.2408C51.2912 12.1675 51.2562 12.0942 51.2212 12.0209C51.1861 11.9842 51.116 11.9476 51.081 11.9476L51.2212 11.6544L51.0109 11.5444L50.7657 12.0209C50.7307 12.0942 50.7307 12.1308 50.6956 12.1675C50.6956 12.2041 50.6956 12.2408 50.6956 12.2774C50.6956 12.3507 50.7307 12.424 50.7657 12.4973C50.8358 12.534 50.9058 12.534 51.0109 12.534ZM50.9409 12.2408C50.9409 12.2041 50.9409 12.2041 50.9759 12.1675L51.0109 12.1308C51.046 12.1308 51.046 12.1308 51.081 12.1675C51.081 12.1675 51.116 12.2041 51.116 12.2408C51.116 12.2774 51.116 12.2774 51.081 12.3141C51.046 12.3507 51.0109 12.3507 50.9759 12.3141C50.9409 12.2774 50.9409 12.2774 50.9409 12.2408ZM53.3583 12.4607L53.6736 11.801H53.3583V11.5811H53.9889V11.7277L53.6035 12.5706L53.3583 12.4607ZM52.3072 7.1832C52.3423 7.1099 52.3423 7.07325 52.3773 7.0366C52.3773 6.99995 52.3773 6.96331 52.3773 6.92666C52.3773 6.85336 52.3423 6.78006 52.3072 6.70676C52.2372 6.63346 52.1671 6.59681 52.097 6.59681C52.027 6.59681 51.9569 6.63346 51.8868 6.67011C51.8167 6.74341 51.8167 6.81671 51.8167 6.89001C51.8167 6.96331 51.8518 7.0366 51.8868 7.1099C51.9219 7.14655 51.9919 7.1832 52.027 7.1832L51.8868 7.47639L52.097 7.58634L52.3072 7.1832ZM52.1321 6.9633C52.1321 6.99995 52.1321 6.99995 52.097 7.0366C52.062 7.07325 52.027 7.07325 51.9919 7.0366C51.9919 7.0366 51.9569 6.99995 51.9569 6.9633C51.9569 6.92666 51.9569 6.92666 51.9919 6.89001L52.027 6.85336C52.062 6.85336 52.062 6.85336 52.062 6.89001C52.1321 6.92666 52.1321 6.9633 52.1321 6.9633ZM51.046 6.19367C51.081 6.15702 51.081 6.15703 51.081 6.12038C51.081 6.08373 51.081 6.04708 51.046 6.04708C51.0109 6.01043 50.9759 6.01043 50.9409 6.04708L50.9058 6.08373L50.7307 6.04708L50.8358 5.49734H51.2912V5.71724H51.0109V5.79053C51.081 5.79053 51.1861 5.82718 51.2212 5.90048C51.2912 5.97378 51.2912 6.04708 51.2912 6.12038C51.2912 6.23032 51.2562 6.30362 51.1861 6.37692C51.116 6.45022 51.046 6.48687 50.9409 6.48687C50.8708 6.48687 50.8007 6.45022 50.7307 6.41357C50.6606 6.37692 50.6256 6.30362 50.6256 6.23032V6.19367H50.8708V6.23032C50.8708 6.26697 50.9058 6.26697 50.9058 6.26697C50.9759 6.23032 51.046 6.19367 51.046 6.19367ZM55.9859 8.39262C55.9859 8.50257 55.9859 8.61252 56.021 8.68581C56.056 8.75911 56.091 8.79576 56.1261 8.83241C56.1611 8.86906 56.2312 8.86906 56.3012 8.86906C56.3713 8.86906 56.4414 8.86906 56.4764 8.83241C56.5114 8.79576 56.5465 8.75911 56.5815 8.68581C56.6165 8.61252 56.6165 8.53922 56.6165 8.39262C56.6165 8.28267 56.6165 8.17273 56.5815 8.09943C56.5465 8.02613 56.5114 7.98948 56.4764 7.95283C56.4414 7.91618 56.3713 7.91618 56.3012 7.91618C56.1961 7.91618 56.1261 7.95283 56.056 8.06278C56.021 8.09943 55.9859 8.20938 55.9859 8.39262ZM56.2312 8.39262C56.2312 8.31932 56.2312 8.24602 56.2312 8.20938C56.2312 8.17273 56.2662 8.13608 56.2662 8.13608L56.3012 8.09943C56.3012 8.09943 56.3363 8.09943 56.3713 8.13608C56.3713 8.17273 56.4063 8.20938 56.4063 8.35597C56.4063 8.46592 56.4063 8.53922 56.3713 8.57587C56.3363 8.61252 56.3363 8.61252 56.3012 8.61252C56.2662 8.61252 56.2662 8.61252 56.2312 8.57587C56.2312 8.57587 56.2312 8.53922 56.2312 8.39262ZM48.1381 2.96855L47.8928 3.44499C47.8578 3.51829 47.8578 3.55494 47.8228 3.59159C47.8228 3.62824 47.8228 3.66489 47.8228 3.70153C47.8228 3.77483 47.8578 3.84813 47.8928 3.92143C47.9629 3.99473 48.033 4.03138 48.103 4.03138C48.1731 4.03138 48.2432 3.99473 48.3132 3.95808C48.3833 3.88478 48.3833 3.81148 48.3833 3.73818C48.3833 3.66489 48.3483 3.59159 48.3132 3.51829C48.2782 3.48164 48.2081 3.44499 48.1731 3.44499L48.3132 3.1518L48.1381 2.96855ZM48.2081 3.66489C48.2081 3.70153 48.2081 3.70153 48.1731 3.73818C48.1381 3.77483 48.103 3.77483 48.068 3.73818C48.068 3.73818 48.033 3.70153 48.033 3.66489C48.033 3.62824 48.033 3.62824 48.068 3.59159L48.103 3.55494C48.1381 3.55494 48.1381 3.55494 48.1731 3.59159C48.1731 3.62824 48.2081 3.66489 48.2081 3.66489ZM48.2081 6.19367C48.2432 6.19367 48.2432 6.15703 48.2432 6.12038C48.2432 6.08373 48.2432 6.08373 48.2081 6.04708C48.1731 6.01043 48.1381 6.01043 48.103 6.01043H48.068V5.79053H48.103C48.1381 5.79053 48.1731 5.79053 48.1731 5.79053C48.1731 5.79053 48.2081 5.79053 48.2081 5.75388V5.71724V5.68059C48.2081 5.68059 48.2081 5.68059 48.1731 5.68059H48.1381L48.103 5.71724V5.75388H47.8928V5.71724C47.8928 5.64394 47.9279 5.57064 47.9629 5.53399C48.033 5.46069 48.103 5.42404 48.1731 5.42404C48.2432 5.42404 48.3132 5.46069 48.3833 5.49734C48.4534 5.53399 48.4534 5.60729 48.4534 5.68059C48.4534 5.71724 48.4534 5.75388 48.4184 5.79053C48.4184 5.82718 48.3833 5.82718 48.3833 5.82718C48.4183 5.82718 48.4534 5.86383 48.4534 5.90048C48.4884 5.93713 48.4884 6.01043 48.4884 6.04708C48.4884 6.12038 48.4534 6.19367 48.3833 6.26697C48.3132 6.34027 48.2432 6.37692 48.1381 6.37692C48.033 6.37692 47.9629 6.34027 47.9279 6.30362C47.8578 6.23032 47.8228 6.15702 47.8228 6.08373V6.04708H48.033V6.08373C48.033 6.12038 48.033 6.15703 48.068 6.15703C48.103 6.23032 48.1731 6.23032 48.2081 6.19367ZM50.1351 2.16227C50.1701 2.12562 50.1701 2.08897 50.1701 2.05232C50.1701 2.01568 50.1701 2.01568 50.1351 1.97903C50.1 1.94238 50.065 1.94238 50.03 1.97903C50.03 2.01568 49.9949 2.01568 49.9949 2.05232V2.08897H49.7847V2.05232C49.7847 1.94238 49.8198 1.86908 49.8898 1.79578C49.9599 1.72248 50.03 1.68583 50.1 1.68583C50.1701 1.68583 50.2051 1.68583 50.2402 1.72248C50.2752 1.75913 50.3102 1.79578 50.3453 1.83243C50.3803 1.86908 50.3803 1.94238 50.3803 1.97903C50.3803 2.05232 50.3803 2.08897 50.3453 2.16227C50.3102 2.23557 50.2752 2.30887 50.1701 2.38217L50.1351 2.41882H50.3803V2.63871H49.7146V2.60206L49.9949 2.30887C50.1 2.27222 50.1351 2.19892 50.1351 2.16227ZM50.3453 5.42404L50.1 5.90048C50.065 5.97378 50.065 6.01043 50.03 6.04708C50.03 6.08373 50.03 6.12038 50.03 6.15703C50.03 6.23032 50.065 6.30362 50.1 6.37692C50.1701 6.45022 50.2402 6.48687 50.3102 6.48687C50.3803 6.48687 50.4504 6.45022 50.5205 6.41357C50.5905 6.34027 50.5905 6.26697 50.5905 6.19367C50.5905 6.12038 50.5555 6.04708 50.5205 5.97378C50.4854 5.93713 50.4153 5.90048 50.3803 5.90048L50.5205 5.60729L50.3453 5.42404ZM50.4153 6.12038C50.4153 6.15703 50.4153 6.15702 50.3803 6.19367C50.3453 6.23032 50.3102 6.23032 50.2752 6.19367C50.2752 6.19367 50.2402 6.15703 50.2402 6.12038C50.2402 6.08373 50.2402 6.08373 50.2752 6.04708L50.3102 6.01043C50.3453 6.01043 50.3453 6.01043 50.3803 6.04708C50.4153 6.08373 50.4153 6.08373 50.4153 6.12038ZM50.1 10.335L49.8548 10.8115C49.8197 10.8848 49.8198 10.9214 49.7847 10.9581C49.7847 10.9947 49.7847 11.0314 49.7847 11.068C49.7847 11.1413 49.8197 11.2146 49.8548 11.2879C49.9249 11.3612 49.9949 11.3978 50.065 11.3978C50.1351 11.3978 50.2051 11.3612 50.2752 11.3245C50.3453 11.2513 50.3453 11.178 50.3453 11.1047C50.3453 11.0314 50.3102 10.9581 50.2752 10.8848C50.2402 10.8481 50.1701 10.8115 50.1351 10.8115L50.2752 10.5183L50.1 10.335ZM50.1701 11.0314C50.1701 11.068 50.1701 11.068 50.1351 11.1047C50.1 11.1413 50.065 11.1413 50.03 11.1047C50.03 11.1047 49.9949 11.068 49.9949 11.0314C49.9949 10.9947 49.9949 10.9947 50.03 10.9581L50.065 10.9214C50.1 10.9214 50.1 10.9214 50.1351 10.9581C50.1701 10.9581 50.1701 10.9947 50.1701 11.0314ZM47.8578 8.68581C47.8928 8.75911 47.9279 8.79576 47.9629 8.83241C47.9979 8.86906 48.068 8.86906 48.1381 8.86906C48.2081 8.86906 48.2782 8.86906 48.3132 8.83241C48.3483 8.79576 48.3833 8.75911 48.4184 8.68581C48.4184 8.64916 48.4534 8.61252 48.4534 8.57587V8.68581H48.8037V8.86906H49.0139V8.68581H49.084V8.46592H49.0139V7.91618H48.8388L48.4534 8.50257C48.4534 8.46592 48.4534 8.46592 48.4534 8.42927C48.4534 8.31932 48.4534 8.20938 48.4184 8.13608C48.3833 8.06278 48.3483 8.02613 48.3132 7.98948C48.2782 7.95283 48.2081 7.95283 48.1381 7.95283C48.033 7.95283 47.9629 7.98948 47.8928 8.09943C47.8578 8.17273 47.8228 8.28267 47.8228 8.46592C47.7877 8.50257 47.8228 8.61252 47.8578 8.68581ZM48.7337 8.46592L48.8388 8.31932V8.46592H48.7337ZM48.033 8.39262C48.033 8.31932 48.033 8.24602 48.033 8.20938C48.033 8.17273 48.068 8.13608 48.068 8.13608L48.103 8.09943C48.103 8.09943 48.1381 8.09943 48.1731 8.13608C48.1731 8.17273 48.2081 8.20938 48.2081 8.35597C48.2081 8.46592 48.2081 8.53922 48.1731 8.57587C48.1381 8.61252 48.1381 8.61252 48.103 8.61252C48.068 8.61252 48.068 8.61252 48.033 8.57587C48.033 8.57587 48.033 8.53922 48.033 8.39262ZM50.1 6.63346L49.8548 7.1099C49.8197 7.1832 49.8198 7.21985 49.7847 7.2565C49.7847 7.29315 49.7847 7.3298 49.7847 7.36645C49.7847 7.43974 49.8197 7.51304 49.8548 7.58634C49.9249 7.65964 49.9949 7.69629 50.065 7.69629C50.1351 7.69629 50.2051 7.65964 50.2752 7.62299C50.3453 7.54969 50.3453 7.47639 50.3453 7.40309C50.3453 7.3298 50.3102 7.2565 50.2752 7.1832C50.2402 7.14655 50.1701 7.1099 50.1351 7.1099L50.2752 6.81671L50.1 6.63346ZM50.1701 7.3298C50.1701 7.36645 50.1701 7.36645 50.1351 7.40309C50.1 7.43974 50.065 7.43974 50.03 7.40309C50.03 7.40309 49.9949 7.36645 49.9949 7.3298C49.9949 7.29315 49.9949 7.29315 50.03 7.2565L50.065 7.21985C50.1 7.21985 50.1 7.21985 50.1351 7.2565C50.1701 7.29315 50.1701 7.3298 50.1701 7.3298ZM49.4344 5.20415L49.6796 4.72771C49.7146 4.65441 49.7146 4.61776 49.7497 4.58111C49.7497 4.54446 49.7497 4.50782 49.7497 4.47117C49.7497 4.39787 49.7146 4.32457 49.6796 4.25127C49.6095 4.17797 49.5395 4.14132 49.4694 4.14132C49.3993 4.14132 49.3293 4.17797 49.2592 4.21462C49.1891 4.28792 49.1891 4.36122 49.1891 4.43452C49.1891 4.50781 49.2242 4.58111 49.2592 4.65441C49.2942 4.69106 49.3643 4.72771 49.3993 4.72771L49.2592 5.0209L49.4344 5.20415ZM49.3643 4.54446C49.3643 4.50781 49.3643 4.50782 49.3993 4.47117L49.4344 4.43452C49.4694 4.43452 49.4694 4.43452 49.4694 4.47117C49.4694 4.47117 49.5044 4.50781 49.5044 4.54446C49.5044 4.58111 49.5044 4.58111 49.4694 4.61776C49.4344 4.65441 49.3993 4.65441 49.3643 4.61776C49.3643 4.58111 49.3643 4.54446 49.3643 4.54446ZM53.4284 4.9476C53.4634 4.9476 53.4634 4.91096 53.4634 4.87431C53.4634 4.83766 53.4634 4.83766 53.4284 4.80101C53.3933 4.76436 53.3583 4.76436 53.2882 4.76436H53.2532V4.54446H53.2882C53.3233 4.54446 53.3583 4.54446 53.3583 4.54446C53.3583 4.54446 53.3933 4.54446 53.3933 4.50781V4.47117V4.43452C53.3933 4.43452 53.3933 4.43452 53.3583 4.43452H53.3233L53.2882 4.47117V4.50781H53.078V4.47117C53.078 4.39787 53.113 4.32457 53.1481 4.28792C53.2182 4.21462 53.2882 4.17797 53.3583 4.17797C53.4284 4.17797 53.4984 4.21462 53.5685 4.25127C53.6386 4.28792 53.6386 4.36122 53.6386 4.43452C53.6386 4.47117 53.6386 4.50781 53.6035 4.54446C53.6035 4.58111 53.5685 4.58111 53.5685 4.58111C53.6035 4.58111 53.6386 4.61776 53.6386 4.65441C53.6736 4.69106 53.6736 4.76436 53.6736 4.80101C53.6736 4.87431 53.6386 4.9476 53.5685 5.0209C53.4984 5.0942 53.4284 5.13085 53.3233 5.13085C53.2182 5.13085 53.1481 5.0942 53.113 5.05755C53.043 4.98425 53.0079 4.91096 53.0079 4.83766V4.80101H53.2181V4.83766C53.2181 4.87431 53.2182 4.91095 53.2532 4.91095C53.3233 4.98425 53.3933 4.98425 53.4284 4.9476ZM48.4534 3.66489C48.4534 3.73818 48.4534 3.77483 48.4884 3.81148C48.5235 3.84813 48.5585 3.88478 48.5935 3.92143C48.6286 3.95808 48.6986 3.95808 48.7687 3.95808C48.8388 3.95808 48.9088 3.95808 48.9439 3.92143C48.9789 3.88478 49.0139 3.84813 49.049 3.81148C49.084 3.77483 49.084 3.70153 49.084 3.66489C49.084 3.62824 49.084 3.55494 49.049 3.51829C49.049 3.48164 49.0139 3.44499 48.9789 3.44499C49.0139 3.40834 49.0139 3.40834 49.0139 3.37169C49.0139 3.33504 49.049 3.29839 49.049 3.26174C49.049 3.2251 49.049 3.1518 49.0139 3.11515C48.9789 3.0785 48.9439 3.04185 48.9088 3.0052C48.8388 2.96855 48.6986 2.96855 48.6286 3.0052C48.5935 3.04185 48.5585 3.0785 48.5235 3.11515C48.4884 3.1518 48.4884 3.18845 48.4884 3.26174C48.4884 3.29839 48.4884 3.33504 48.5235 3.37169C48.5235 3.40834 48.5585 3.40834 48.5585 3.44499C48.5235 3.48164 48.5235 3.51829 48.4884 3.51829C48.4534 3.59159 48.4534 3.62824 48.4534 3.66489ZM48.8388 3.33504C48.8037 3.37169 48.7687 3.37169 48.7687 3.33504V3.29839C48.7687 3.26174 48.7687 3.26174 48.7687 3.26174H48.8037C48.8388 3.26174 48.8388 3.26174 48.8388 3.26174V3.29839V3.33504ZM48.8037 3.59159C48.8388 3.59159 48.8388 3.59159 48.8738 3.62824C48.9088 3.62824 48.9088 3.66489 48.9088 3.70153C48.9088 3.73818 48.9088 3.73818 48.8738 3.77483C48.8388 3.81148 48.7687 3.81148 48.7337 3.77483C48.6986 3.77483 48.6986 3.73818 48.6986 3.70153C48.6986 3.66489 48.6986 3.66489 48.7337 3.62824C48.7337 3.59159 48.7687 3.59159 48.8037 3.59159ZM48.7687 4.21462L48.5235 4.69106C48.4884 4.76436 48.4884 4.80101 48.4534 4.83766C48.4534 4.87431 48.4534 4.91095 48.4534 4.9476C48.4534 5.0209 48.4884 5.0942 48.5235 5.1675C48.5935 5.2408 48.6636 5.27745 48.7337 5.27745C48.8037 5.27745 48.8738 5.2408 48.9439 5.20415C49.0139 5.13085 49.0139 5.05755 49.0139 4.98425C49.0139 4.91095 48.9789 4.83766 48.9439 4.76436C48.9088 4.72771 48.8388 4.69106 48.8037 4.69106L48.9439 4.39787L48.7687 4.21462ZM48.8388 4.91095C48.8388 4.9476 48.8388 4.9476 48.8037 4.98425C48.7687 5.0209 48.7337 5.0209 48.6986 4.98425C48.6986 4.98425 48.6636 4.9476 48.6636 4.91095C48.6636 4.87431 48.6636 4.87431 48.6986 4.83766L48.7337 4.80101C48.7687 4.80101 48.7687 4.80101 48.8037 4.83766C48.8388 4.83766 48.8388 4.87431 48.8388 4.91095ZM49.5044 8.28267C49.5395 8.24602 49.5395 8.20938 49.5395 8.17273C49.5395 8.13608 49.5395 8.13608 49.5044 8.09943C49.4694 8.06278 49.4344 8.06278 49.3993 8.09943C49.3993 8.13608 49.3643 8.13608 49.3643 8.17273V8.20938H49.1541V8.17273C49.1541 8.06278 49.1891 7.98948 49.2592 7.91618C49.3293 7.84288 49.3993 7.80624 49.4694 7.80624C49.5395 7.80624 49.5745 7.80624 49.6095 7.84288C49.6446 7.87953 49.6796 7.91618 49.7146 7.95283C49.7497 7.98948 49.7497 8.06278 49.7497 8.09943C49.7497 8.17273 49.7497 8.20938 49.7146 8.28267C49.6796 8.35597 49.6446 8.42927 49.5395 8.50257L49.5044 8.53922H49.7497V8.75911H49.084V8.61252L49.3643 8.31932C49.4344 8.39262 49.4694 8.31932 49.5044 8.28267ZM49.4344 2.96855L49.1891 3.44499C49.1541 3.51829 49.1541 3.55494 49.1191 3.59159C49.1191 3.62824 49.1191 3.66489 49.1191 3.70153C49.1191 3.77483 49.1541 3.84813 49.1891 3.92143C49.2592 3.99473 49.3293 4.03138 49.3993 4.03138C49.4694 4.03138 49.5395 3.99473 49.6095 3.95808C49.6796 3.88478 49.6796 3.81148 49.6796 3.73818C49.6796 3.66489 49.6446 3.59159 49.6095 3.51829C49.5745 3.48164 49.5044 3.44499 49.4694 3.44499L49.6095 3.1518L49.4344 2.96855ZM49.5044 3.66489C49.5044 3.70153 49.5044 3.70153 49.4694 3.73818C49.4344 3.77483 49.3993 3.77483 49.3643 3.73818C49.3643 3.73818 49.3293 3.70153 49.3293 3.66489C49.3293 3.62824 49.3293 3.62824 49.3643 3.59159L49.3993 3.55494C49.4344 3.55494 49.4344 3.55494 49.4694 3.59159C49.5044 3.62824 49.5044 3.66489 49.5044 3.66489ZM48.5235 7.58634L48.8388 6.92666H48.4884V6.70676H49.1191V6.85336L48.7337 7.69629L48.5235 7.58634ZM49.1191 5.93713C49.1191 5.82718 49.1541 5.75388 49.1891 5.68059C49.2242 5.60729 49.2942 5.53399 49.3643 5.49734C49.5044 5.42404 49.6796 5.42404 49.8198 5.49734C49.8898 5.53399 49.9599 5.57064 49.9949 5.64394L50.03 5.68059L49.8548 5.82718L49.8198 5.79053C49.7497 5.71724 49.6796 5.68059 49.5745 5.68059C49.5044 5.68059 49.4344 5.71724 49.3993 5.75388C49.3643 5.79053 49.3293 5.86383 49.3293 5.93713C49.3293 5.97378 49.3293 6.04708 49.3643 6.08373C49.3993 6.12038 49.3993 6.15702 49.4694 6.19367C49.5395 6.23032 49.6446 6.23032 49.7146 6.19367C49.7497 6.19367 49.7847 6.15702 49.8198 6.08373L49.8548 6.04708L49.9949 6.23032L49.9599 6.26697C49.8898 6.34027 49.8198 6.37692 49.7847 6.41357C49.7146 6.45022 49.6446 6.45022 49.5745 6.45022C49.4344 6.45022 49.3293 6.41357 49.2242 6.30362C49.1891 6.19367 49.1191 6.08373 49.1191 5.93713ZM50.1351 8.86906H50.3453V8.68581H50.4153V8.46592H50.3453V7.91618H50.1351L49.7497 8.50257V8.72246H50.1V8.86906H50.1351ZM50.03 8.46592L50.1351 8.31932V8.46592H50.03ZM48.5585 6.34027C48.6286 6.41357 48.6986 6.45022 48.7687 6.45022C48.8388 6.45022 48.9088 6.41357 48.9789 6.37692C49.049 6.30362 49.049 6.23032 49.049 6.15703C49.049 6.08373 49.0139 6.01043 48.9789 5.93713C48.9439 5.90048 48.8738 5.86383 48.8388 5.86383L48.9789 5.57064L48.7687 5.46069L48.5235 5.93713C48.4884 6.01043 48.4884 6.04708 48.4534 6.08373C48.4534 6.12038 48.4534 6.15702 48.4534 6.19367C48.4884 6.19367 48.5235 6.26697 48.5585 6.34027ZM48.6986 6.12038C48.6986 6.08373 48.6986 6.08373 48.7337 6.04708L48.7687 6.01043C48.8037 6.01043 48.8037 6.01043 48.8388 6.04708C48.8388 6.04708 48.8738 6.08373 48.8738 6.12038C48.8738 6.15703 48.8738 6.15702 48.8388 6.19367C48.8037 6.23032 48.7687 6.23032 48.7337 6.19367C48.6986 6.15702 48.6986 6.15703 48.6986 6.12038ZM49.9249 10.0785C49.9599 10.1151 50.03 10.1151 50.1 10.1151C50.1701 10.1151 50.2402 10.1151 50.2752 10.0785C50.3102 10.0418 50.3453 10.0052 50.3803 9.96853C50.4153 9.93188 50.4153 9.85859 50.4153 9.82194C50.4153 9.78529 50.4153 9.71199 50.3803 9.67534C50.3803 9.63869 50.3453 9.60204 50.3102 9.60204C50.3453 9.56539 50.3453 9.56539 50.3453 9.52874C50.3453 9.49209 50.3803 9.45545 50.3803 9.4188C50.3803 9.38215 50.3803 9.30885 50.3453 9.2722C50.3102 9.23555 50.2752 9.1989 50.2402 9.16225C50.1701 9.1256 50.03 9.1256 49.9599 9.16225C49.9249 9.1989 49.8898 9.23555 49.8548 9.2722C49.8197 9.30885 49.8198 9.3455 49.8198 9.4188C49.8198 9.45545 49.8197 9.49209 49.8548 9.52874C49.8548 9.56539 49.8898 9.56539 49.8898 9.60204C49.8548 9.63869 49.8548 9.67534 49.8198 9.67534C49.7847 9.71199 49.7847 9.78529 49.7847 9.82194C49.7847 9.89524 49.7847 9.93188 49.8198 9.96853C49.8548 10.0052 49.8898 10.0418 49.9249 10.0785ZM50.1351 9.45545C50.1 9.49209 50.065 9.49209 50.065 9.45545V9.4188C50.065 9.38215 50.065 9.38215 50.065 9.38215H50.1C50.1351 9.38215 50.1351 9.38215 50.1351 9.38215V9.4188V9.45545ZM50.1 9.71199C50.1351 9.71199 50.1351 9.71199 50.1701 9.74864C50.2051 9.74864 50.2051 9.78529 50.2051 9.82194C50.2051 9.85859 50.2051 9.85859 50.1701 9.89523C50.1351 9.93188 50.065 9.93188 50.03 9.89523C49.9949 9.89523 49.9949 9.85859 49.9949 9.82194C49.9949 9.78529 49.9949 9.78529 50.03 9.74864C50.03 9.71199 50.065 9.71199 50.1 9.71199ZM49.2592 11.2879C49.2942 11.3246 49.3643 11.3245 49.4344 11.3245C49.5044 11.3245 49.5745 11.3246 49.6095 11.2879C49.6446 11.2513 49.6796 11.2146 49.7146 11.1413C49.7497 11.068 49.7497 10.9947 49.7497 10.8481C49.7497 10.7382 49.7497 10.6282 49.7146 10.5549C49.6796 10.4816 49.6446 10.445 49.6095 10.4083C49.5745 10.3717 49.5044 10.3717 49.4344 10.3717C49.3293 10.3717 49.2592 10.4083 49.1891 10.5183C49.1541 10.5916 49.1191 10.7015 49.1191 10.8848C49.1191 10.9947 49.119 11.1047 49.1541 11.178C49.1891 11.178 49.2242 11.2513 49.2592 11.2879ZM49.3293 10.8481C49.3293 10.7748 49.3293 10.7015 49.3293 10.6649C49.3293 10.6282 49.3643 10.5916 49.3643 10.5916L49.3993 10.5549C49.3993 10.5549 49.4344 10.5549 49.4694 10.5916C49.4694 10.6282 49.5044 10.6649 49.5044 10.8115C49.5044 10.9214 49.5044 10.9947 49.4694 11.0314C49.4344 11.068 49.4344 11.068 49.3993 11.068C49.3643 11.068 49.3643 11.068 49.3293 11.0314C49.3643 11.0314 49.3293 10.9581 49.3293 10.8481ZM47.8578 4.98425C47.8928 5.05755 47.9279 5.0942 47.9629 5.13085C47.9979 5.1675 48.068 5.1675 48.1381 5.1675C48.2081 5.1675 48.2782 5.1675 48.3132 5.13085C48.3483 5.0942 48.3833 5.05755 48.4184 4.98425C48.4534 4.91095 48.4534 4.83766 48.4534 4.69106C48.4534 4.58111 48.4534 4.47117 48.4184 4.39787C48.3833 4.32457 48.3483 4.28792 48.3132 4.25127C48.2782 4.21462 48.2081 4.21462 48.1381 4.21462C48.033 4.21462 47.9629 4.25127 47.8928 4.36122C47.8578 4.43452 47.8228 4.54446 47.8228 4.72771C47.7877 4.83766 47.8228 4.9476 47.8578 4.98425ZM48.033 4.72771C48.033 4.65441 48.033 4.58111 48.033 4.54446C48.033 4.50781 48.068 4.47117 48.068 4.47117L48.103 4.43452C48.103 4.43452 48.1381 4.43452 48.1731 4.47117C48.1731 4.50782 48.2081 4.54446 48.2081 4.69106C48.2081 4.80101 48.2081 4.87431 48.1731 4.91095C48.1381 4.9476 48.1381 4.9476 48.103 4.9476C48.068 4.9476 48.068 4.9476 48.033 4.91095C48.033 4.91095 48.033 4.83766 48.033 4.72771ZM47.8578 7.43974C47.8928 7.51304 47.9279 7.54969 47.9629 7.58634C47.9979 7.62299 48.068 7.62299 48.1381 7.62299C48.2081 7.62299 48.2782 7.62299 48.3132 7.58634C48.3483 7.54969 48.3833 7.51304 48.4184 7.43974C48.4534 7.36645 48.4534 7.29315 48.4534 7.14655C48.4534 7.0366 48.4534 6.92666 48.4184 6.85336C48.3833 6.78006 48.3483 6.74341 48.3132 6.70676C48.2782 6.67011 48.2081 6.67011 48.1381 6.67011C48.033 6.67011 47.9629 6.70676 47.8928 6.81671C47.8578 6.89001 47.8228 6.99996 47.8228 7.1832C47.7877 7.29315 47.8228 7.36645 47.8578 7.43974ZM48.033 7.1832C48.033 7.1099 48.033 7.0366 48.033 6.99996C48.033 6.96331 48.068 6.92666 48.068 6.92666L48.103 6.89001C48.103 6.89001 48.1381 6.89001 48.1731 6.92666C48.1731 6.96331 48.2081 6.99995 48.2081 7.14655C48.2081 7.2565 48.2081 7.3298 48.1731 7.36645C48.1381 7.4031 48.1381 7.40309 48.103 7.40309C48.068 7.40309 48.068 7.4031 48.033 7.36645C48.033 7.36645 48.033 7.29315 48.033 7.1832ZM50.1 3.99473L50.3453 3.51829C50.3803 3.44499 50.3803 3.40834 50.4153 3.37169C50.4153 3.33504 50.4153 3.29839 50.4153 3.26174C50.4153 3.18845 50.3803 3.11515 50.3453 3.04185C50.2752 2.96855 50.2051 2.9319 50.1351 2.9319C50.065 2.9319 49.9949 2.96855 49.9249 3.0052C49.8548 3.0785 49.8548 3.1518 49.8548 3.2251C49.8548 3.29839 49.8898 3.37169 49.9249 3.44499C49.9599 3.48164 50.03 3.51829 50.065 3.51829L49.9249 3.81148L50.1 3.99473ZM50.03 3.29839C50.03 3.26174 50.03 3.26174 50.065 3.2251L50.1 3.18845C50.1351 3.18845 50.1351 3.18845 50.1351 3.2251C50.1351 3.2251 50.1701 3.26174 50.1701 3.29839C50.1701 3.33504 50.1701 3.33504 50.1351 3.37169C50.1 3.40834 50.065 3.40834 50.03 3.37169C50.03 3.33504 50.03 3.33504 50.03 3.29839ZM49.1891 7.58634L49.5044 6.92666H49.1891V6.70676H49.8198V6.85336L49.4344 7.69629L49.1891 7.58634ZM49.8198 4.25127H50.4504V4.39787L50.065 5.2408L49.8548 5.13085L50.1701 4.47117H49.8548V4.25127H49.8198ZM49.084 11.2879H48.4184V11.1413L48.6986 10.8481C48.7687 10.7748 48.8037 10.7382 48.8037 10.7015C48.8388 10.6649 48.8388 10.6282 48.8388 10.5916C48.8388 10.5549 48.8388 10.5549 48.8037 10.5183C48.7687 10.4816 48.7337 10.4816 48.6986 10.5183C48.6986 10.5549 48.6636 10.5549 48.6636 10.5916V10.6282H48.4534V10.5916C48.4534 10.4816 48.4884 10.4083 48.5585 10.335C48.6286 10.2617 48.6986 10.2251 48.7687 10.2251C48.8388 10.2251 48.8738 10.2251 48.9088 10.2617C48.9439 10.2984 48.9789 10.335 49.0139 10.3717C49.049 10.4083 49.049 10.4816 49.049 10.5183C49.049 10.5916 49.049 10.6282 49.0139 10.7015C48.9789 10.7748 48.9439 10.8481 48.8388 10.9214L48.8037 10.9581H49.049V11.2879H49.084ZM49.1191 9.2722L48.7337 10.1151L48.5235 10.0052L48.8388 9.3455H48.4884V9.1256H49.1191V9.2722ZM49.4344 9.08895L49.1891 9.56539C49.1541 9.63869 49.1541 9.67534 49.1191 9.71199C49.1191 9.74864 49.1191 9.78529 49.1191 9.82194C49.1191 9.89524 49.1541 9.96853 49.1891 10.0418C49.2592 10.1151 49.3293 10.1518 49.3993 10.1518C49.4694 10.1518 49.5395 10.1151 49.6095 10.0785C49.6796 10.0052 49.6796 9.93188 49.6796 9.85859C49.6796 9.78529 49.6446 9.71199 49.6095 9.63869C49.5745 9.60204 49.5044 9.56539 49.4694 9.56539L49.6095 9.2722L49.4344 9.08895ZM49.5044 9.78529C49.5044 9.82194 49.5044 9.82194 49.4694 9.85859C49.4344 9.89524 49.3993 9.89524 49.3643 9.85859C49.3643 9.85859 49.3293 9.82194 49.3293 9.78529C49.3293 9.74864 49.3293 9.74864 49.3643 9.71199L49.3993 9.67534C49.4344 9.67534 49.4344 9.67534 49.4694 9.71199C49.5044 9.74864 49.5044 9.74864 49.5044 9.78529ZM48.4534 2.74866H47.7877V2.60206L48.068 2.30887C48.1381 2.23557 48.1731 2.19892 48.1731 2.16227C48.2081 2.12562 48.2081 2.08897 48.2081 2.05232C48.2081 2.01568 48.2081 2.01568 48.1731 1.97903C48.1381 1.94238 48.103 1.94238 48.068 1.97903C48.068 2.01568 48.033 2.01568 48.033 2.05232V2.08897H47.8228V2.05232C47.8228 1.94238 47.8578 1.86908 47.9279 1.79578C47.9979 1.72248 48.068 1.68583 48.1381 1.68583C48.2081 1.68583 48.2432 1.68583 48.2782 1.72248C48.3132 1.75913 48.3483 1.79578 48.3833 1.83243C48.4183 1.86908 48.4184 1.94238 48.4184 1.97903C48.4184 2.05232 48.4183 2.08897 48.3833 2.16227C48.3483 2.23557 48.3132 2.30887 48.2081 2.38217L48.1731 2.41882H48.4184V2.74866H48.4534ZM48.8388 0.806254H48.4884V0.549711H49.1191V0.696307L48.7337 1.53924L48.5235 1.42929L48.8388 0.806254ZM48.1731 0.806254H47.8578V0.549711H48.4884V0.696307L48.103 1.53924L47.8928 1.42929L48.1731 0.806254ZM48.5585 12.4607C48.4884 12.3874 48.4534 12.3141 48.4534 12.2408V12.2041H48.6636V12.2408C48.6636 12.2774 48.6636 12.3141 48.6986 12.3141C48.7337 12.3507 48.8037 12.3507 48.8388 12.3141C48.8738 12.3141 48.8738 12.2774 48.8738 12.2408C48.8738 12.2041 48.8738 12.2041 48.8388 12.1675C48.8037 12.1308 48.7687 12.1308 48.7337 12.1308H48.6986V11.9109H48.7337C48.7687 11.9109 48.8037 11.9109 48.8037 11.9109C48.8037 11.9109 48.8388 11.9109 48.8388 11.8743V11.8376V11.801C48.8388 11.801 48.8388 11.801 48.8037 11.801H48.7687L48.7337 11.8376V11.8743H48.4884V11.8376C48.4884 11.7643 48.5235 11.691 48.5585 11.6544C48.6286 11.5811 48.6986 11.5444 48.7687 11.5444C48.8388 11.5444 48.9088 11.5811 48.9789 11.6177C49.049 11.6544 49.049 11.7277 49.049 11.801C49.049 11.8376 49.049 11.8743 49.0139 11.9109C49.0139 11.9476 48.9789 11.9476 48.9789 11.9476C49.0139 11.9476 49.049 11.9842 49.049 12.0209C49.084 12.0575 49.084 12.1308 49.084 12.1675C49.084 12.2408 49.049 12.3141 48.9789 12.3874C48.9088 12.4607 48.8388 12.4973 48.7337 12.4973C48.6986 12.534 48.6286 12.534 48.5585 12.4607ZM48.1381 12.534C48.2081 12.534 48.2782 12.4973 48.3483 12.4607C48.4184 12.3874 48.4184 12.3141 48.4184 12.2408C48.4184 12.1675 48.3833 12.0942 48.3483 12.0209C48.3132 11.9842 48.2432 11.9476 48.2081 11.9476L48.3483 11.6544L48.1381 11.5444L47.8928 12.0209C47.8578 12.0942 47.8578 12.1308 47.8228 12.1675C47.8228 12.2041 47.8228 12.2408 47.8228 12.2774C47.8228 12.3507 47.8578 12.424 47.8928 12.4973C47.9629 12.534 48.033 12.534 48.1381 12.534ZM48.068 12.2408C48.068 12.2041 48.068 12.2041 48.103 12.1675L48.1381 12.1308C48.1731 12.1308 48.1731 12.1308 48.2081 12.1675C48.2081 12.1675 48.2432 12.2041 48.2432 12.2408C48.2432 12.2774 48.2432 12.2774 48.2081 12.3141C48.1731 12.3507 48.1381 12.3507 48.103 12.3141C48.068 12.2774 48.068 12.2774 48.068 12.2408ZM47.8228 12.7905H48.4534V12.9371L48.068 13.78L47.8578 13.6701L48.1731 13.0104H47.8578V12.7905H47.8228ZM49.4344 1.53924C49.5044 1.53924 49.5745 1.50259 49.6446 1.46594C49.7146 1.39264 49.7146 1.31934 49.7146 1.24604C49.7146 1.17275 49.6796 1.09945 49.6446 1.02615C49.6095 0.9895 49.5395 0.952851 49.5044 0.952851L49.6446 0.659658L49.4344 0.549711L49.1891 0.9895C49.1541 1.0628 49.1541 1.09945 49.1191 1.1361C49.1191 1.17275 49.1191 1.20939 49.1191 1.24604C49.1191 1.31934 49.1541 1.39264 49.1891 1.46594C49.2942 1.50259 49.3643 1.53924 49.4344 1.53924ZM49.3643 1.20939C49.3643 1.17275 49.3643 1.17275 49.3993 1.1361L49.4344 1.09945C49.4694 1.09945 49.4694 1.09945 49.5044 1.1361C49.5044 1.1361 49.5395 1.17275 49.5395 1.20939C49.5395 1.24604 49.5395 1.24604 49.5044 1.28269C49.4694 1.31934 49.4344 1.31934 49.3993 1.28269C49.3643 1.28269 49.3643 1.24604 49.3643 1.20939ZM47.8928 11.2513C47.8228 11.2146 47.7877 11.1413 47.7877 11.068V11.0314H48.033V11.068C48.033 11.1047 48.068 11.1047 48.068 11.1047C48.103 11.1413 48.1381 11.1413 48.1731 11.1047C48.2081 11.068 48.2081 11.068 48.2081 11.0314C48.2081 10.9947 48.2081 10.9581 48.1731 10.9581C48.1381 10.9214 48.103 10.9214 48.068 10.9581L48.033 10.9947L47.8578 10.9581L47.9629 10.4083H48.4184V10.6282H48.1381V10.7015C48.2081 10.7015 48.3132 10.7382 48.3483 10.8115C48.4184 10.8848 48.4184 10.9581 48.4184 11.0314C48.4184 11.1413 48.3833 11.2146 48.3132 11.2879C48.2432 11.3612 48.1731 11.3978 48.068 11.3978C48.033 11.3246 47.9629 11.2879 47.8928 11.2513ZM49.084 1.97903C49.049 1.90573 49.0139 1.86908 48.9789 1.83243C48.9439 1.79578 48.8738 1.79578 48.8037 1.79578C48.6986 1.79578 48.6286 1.83243 48.5585 1.94238C48.5235 2.01568 48.4884 2.12562 48.4884 2.30887C48.4884 2.41882 48.4884 2.52876 48.5235 2.60206C48.5585 2.67536 48.5935 2.71201 48.6286 2.74866C48.6636 2.78531 48.7337 2.78531 48.8037 2.78531C48.8738 2.78531 48.9439 2.78531 48.9789 2.74866C49.0139 2.71201 49.049 2.67536 49.084 2.60206C49.084 2.56541 49.1191 2.52876 49.1191 2.49211V2.60206H49.4694V2.78531H49.6796V2.56541H49.7497V2.34552H49.6796V1.75913H49.4694L49.084 2.34552C49.084 2.30887 49.084 2.30887 49.084 2.27222C49.119 2.16227 49.119 2.05232 49.084 1.97903ZM48.8738 2.27222C48.8738 2.38217 48.8738 2.45546 48.8388 2.49211C48.8037 2.52876 48.8037 2.52876 48.7687 2.52876C48.7337 2.52876 48.7337 2.52876 48.6986 2.49211C48.6986 2.45546 48.6636 2.41882 48.6636 2.27222C48.6636 2.19892 48.6636 2.12562 48.6636 2.08897C48.6636 2.05232 48.6986 2.01567 48.6986 2.01567L48.7337 1.97903C48.7337 1.97903 48.7687 1.97903 48.8037 2.01567C48.8738 2.08897 48.8738 2.12562 48.8738 2.27222ZM49.3643 2.34552L49.4694 2.19892V2.34552H49.3643ZM51.7116 2.49211V2.45546H51.9569V2.49211C51.9569 2.52876 51.9919 2.52876 51.9919 2.52876C52.027 2.56541 52.062 2.56541 52.097 2.52876C52.1321 2.49211 52.1321 2.49211 52.1321 2.45546C52.1321 2.41882 52.1321 2.38217 52.097 2.38217C52.062 2.34552 52.027 2.34552 51.9919 2.38217L51.9569 2.41882L51.7817 2.38217L51.8868 1.83243H52.3423V2.05232H52.062V2.12562C52.1321 2.12562 52.2372 2.16227 52.2722 2.23557C52.3423 2.30887 52.3423 2.38217 52.3423 2.45546C52.3423 2.56541 52.3072 2.63871 52.2372 2.71201C52.1671 2.78531 52.097 2.82196 51.9919 2.82196C51.9219 2.82196 51.8518 2.78531 51.7817 2.74866C51.7817 2.63871 51.7467 2.56541 51.7116 2.49211ZM52.097 0.806254H51.7817V0.549711H52.4123V0.696307L51.9919 1.53924L51.7817 1.42929L52.097 0.806254ZM51.3613 1.17275L51.2212 1.46594L51.4314 1.57589L51.6766 1.09945C51.7116 1.02615 51.7116 0.9895 51.7467 0.952851C51.7467 0.916202 51.7467 0.879553 51.7467 0.842903C51.7467 0.769605 51.7116 0.696307 51.6766 0.623009C51.6065 0.549711 51.5365 0.513062 51.4664 0.513062C51.3963 0.513062 51.3263 0.549711 51.2562 0.58636C51.1861 0.659658 51.1861 0.732956 51.1861 0.806254C51.1861 0.879553 51.2212 0.952851 51.2562 1.02615C51.2562 1.1361 51.2912 1.1361 51.3613 1.17275ZM51.3263 0.842903C51.3263 0.806254 51.3263 0.806254 51.3613 0.769605L51.3963 0.732956C51.4314 0.732956 51.4314 0.732956 51.4314 0.769605C51.4314 0.769605 51.4664 0.806254 51.4664 0.842903C51.4664 0.879553 51.4664 0.879553 51.4314 0.916202C51.3963 0.952851 51.3613 0.952851 51.3263 0.916202C51.3613 0.916202 51.3263 0.879553 51.3263 0.842903ZM52.3773 1.1361V1.35599H52.7277V1.50259H52.9379V1.31934H53.0079V1.09945H52.9379V0.549711H52.7277L52.3773 1.1361ZM52.6576 1.09945L52.7627 0.952851V1.09945H52.6576ZM50.7307 1.53924C50.8007 1.53924 50.8708 1.50259 50.9409 1.46594C51.0109 1.39264 51.0109 1.31934 51.0109 1.24604C51.0109 1.17275 50.9759 1.09945 50.9409 1.02615C50.9058 0.9895 50.8358 0.952851 50.8007 0.952851L50.9409 0.659658L50.7307 0.549711L50.4854 1.02615C50.4504 1.09945 50.4504 1.1361 50.4153 1.17275C50.4153 1.20939 50.4153 1.24604 50.4153 1.28269C50.4153 1.35599 50.4504 1.42929 50.4854 1.50259C50.5905 1.50259 50.6606 1.53924 50.7307 1.53924ZM50.6606 1.20939C50.6606 1.17275 50.6606 1.17275 50.6956 1.1361L50.7307 1.09945C50.7657 1.09945 50.7657 1.09945 50.8007 1.1361C50.8007 1.1361 50.8358 1.17275 50.8358 1.20939C50.8358 1.24604 50.8358 1.24604 50.8007 1.28269C50.7657 1.31934 50.7307 1.31934 50.6956 1.28269C50.6956 1.28269 50.6606 1.24604 50.6606 1.20939ZM49.9249 1.50259C49.9599 1.53924 50.03 1.53924 50.1 1.53924C50.1701 1.53924 50.2402 1.53924 50.2752 1.50259C50.3102 1.46594 50.3453 1.42929 50.3803 1.39264C50.4153 1.35599 50.4153 1.28269 50.4153 1.24604C50.4153 1.20939 50.4153 1.1361 50.3803 1.09945C50.3803 1.0628 50.3453 1.02615 50.3102 1.02615C50.3453 0.9895 50.3453 0.9895 50.3453 0.952851C50.3453 0.916202 50.3803 0.879553 50.3803 0.842903C50.3803 0.806254 50.3803 0.732956 50.3453 0.696307C50.3102 0.659658 50.2752 0.623009 50.2402 0.58636C50.1701 0.549711 50.03 0.549711 49.9599 0.58636C49.9249 0.623009 49.8898 0.659658 49.8548 0.696307C49.8197 0.732956 49.8198 0.769605 49.8198 0.842903C49.8198 0.879553 49.8197 0.916202 49.8548 0.952851C49.8548 0.9895 49.8898 0.9895 49.8898 1.02615C49.8548 1.0628 49.8548 1.09945 49.8198 1.09945C49.7847 1.1361 49.7847 1.20939 49.7847 1.24604C49.7847 1.31934 49.7847 1.35599 49.8198 1.39264C49.8548 1.42929 49.8898 1.46594 49.9249 1.50259ZM50.1351 0.879553C50.1 0.916202 50.065 0.916202 50.065 0.879553V0.842903C50.065 0.806254 50.065 0.806254 50.065 0.806254H50.1C50.1351 0.806254 50.1351 0.806254 50.1351 0.806254V0.842903V0.879553ZM50.1 1.1361C50.1351 1.1361 50.1351 1.1361 50.1701 1.17275C50.2051 1.17275 50.2051 1.20939 50.2051 1.24604C50.2051 1.28269 50.2051 1.28269 50.1701 1.31934C50.1351 1.35599 50.065 1.35599 50.03 1.31934C49.9949 1.31934 49.9949 1.28269 49.9949 1.24604C49.9949 1.20939 49.9949 1.20939 50.03 1.17275C50.03 1.1361 50.065 1.1361 50.1 1.1361ZM51.0109 1.75913H50.8007L50.4153 2.34552V2.56541H50.7657V2.74866H50.9759V2.56541H51.046V2.34552H50.9759V1.75913H51.0109ZM50.6956 2.34552L50.8007 2.19892V2.34552H50.6956ZM51.3613 2.38217L51.2212 2.67536L51.4314 2.78531L51.6766 2.30887C51.7116 2.23557 51.7116 2.19892 51.7467 2.16227C51.7467 2.12562 51.7467 2.08897 51.7467 2.05232C51.7467 1.97903 51.7116 1.90573 51.6766 1.83243C51.6065 1.75913 51.5365 1.72248 51.4664 1.72248C51.3963 1.72248 51.3263 1.75913 51.2562 1.79578C51.1861 1.86908 51.1861 1.94238 51.1861 2.01567C51.1861 2.08897 51.2212 2.16227 51.2562 2.23557C51.2562 2.34552 51.2912 2.38217 51.3613 2.38217ZM51.3263 2.08897C51.3263 2.05232 51.3263 2.05232 51.3613 2.01567L51.3963 1.97903C51.4314 1.97903 51.4314 1.97903 51.4314 2.01567C51.4314 2.01567 51.4664 2.05232 51.4664 2.08897C51.4664 2.12562 51.4664 2.12562 51.4314 2.16227C51.3963 2.19892 51.3613 2.19892 51.3263 2.16227C51.3613 2.12562 51.3263 2.08897 51.3263 2.08897ZM55.7757 11.6177C55.7407 11.5811 55.6706 11.5811 55.6005 11.5811C55.4954 11.5811 55.4254 11.6177 55.3553 11.7277C55.3203 11.801 55.2852 11.9109 55.2852 12.0942C55.2852 12.2041 55.2852 12.3141 55.3203 12.3874C55.3553 12.4607 55.3903 12.4973 55.4254 12.534C55.4604 12.5706 55.5305 12.5706 55.6005 12.5706C55.6706 12.5706 55.7407 12.5706 55.7757 12.534C55.8107 12.4973 55.8458 12.4607 55.8808 12.3874C55.9158 12.3141 55.9158 12.2408 55.9158 12.0942C55.9158 11.9842 55.9158 11.8743 55.8808 11.801C55.8458 11.691 55.8107 11.6544 55.7757 11.6177ZM55.7056 12.0575C55.7056 12.1675 55.7056 12.2408 55.6706 12.2774C55.6356 12.3141 55.6356 12.3141 55.6005 12.3141C55.5655 12.3141 55.5655 12.3141 55.5305 12.2774C55.5305 12.2408 55.4954 12.2041 55.4954 12.0575C55.4954 11.9842 55.4954 11.9109 55.4954 11.8743C55.4954 11.8376 55.5305 11.801 55.5305 11.801L55.5655 11.7643C55.5655 11.7643 55.6005 11.7643 55.6356 11.801C55.6706 11.8743 55.7056 11.9109 55.7056 12.0575ZM54.7247 13.5235H54.9699V13.7434H54.3042V13.5968L54.5845 13.3036C54.6546 13.2303 54.6896 13.1937 54.6896 13.157C54.7247 13.1204 54.7247 13.0837 54.7247 13.0471C54.7247 13.0104 54.7247 13.0104 54.6896 12.9738C54.6546 12.9371 54.6195 12.9371 54.5845 12.9738C54.5845 13.0104 54.5495 13.0104 54.5495 13.0471V13.0837H54.3393V13.0471C54.3393 12.9371 54.3743 12.8638 54.4444 12.7905C54.5144 12.7172 54.5845 12.6806 54.6546 12.6806C54.7247 12.6806 54.7597 12.6806 54.7947 12.7172C54.8298 12.7539 54.8648 12.7905 54.8998 12.8272C54.9349 12.8638 54.9349 12.9371 54.9349 12.9738C54.9349 13.0471 54.9349 13.0837 54.8998 13.157C54.8648 13.2303 54.8298 13.3036 54.7247 13.3769V13.5235ZM55.0049 12.3141H55.2502V12.534H54.5845V12.3874L54.8648 12.0942C54.9349 12.0209 54.9699 11.9842 54.9699 11.9476C55.0049 11.9109 55.0049 11.8743 55.0049 11.8376C55.0049 11.801 55.0049 11.801 54.9699 11.7643C54.9349 11.7277 54.8998 11.7277 54.8648 11.7643C54.8648 11.801 54.8298 11.801 54.8298 11.8376V11.8743H54.6196V11.8376C54.6196 11.7277 54.6546 11.6544 54.7247 11.5811C54.7947 11.5078 54.8648 11.4711 54.9349 11.4711C55.0049 11.4711 55.04 11.4711 55.075 11.5078C55.11 11.5444 55.1451 11.5811 55.1801 11.6177C55.2151 11.6544 55.2151 11.7277 55.2151 11.7643C55.2151 11.8376 55.2151 11.8743 55.1801 11.9476C55.1451 12.0209 55.11 12.0942 55.0049 12.1675V12.3141ZM53.4284 13.157L53.5685 12.8638L53.3583 12.7539L53.113 13.2303C53.078 13.3036 53.078 13.3403 53.043 13.3769C53.043 13.4136 53.043 13.4502 53.043 13.4868C53.043 13.5601 53.078 13.6334 53.113 13.7067C53.1831 13.78 53.2532 13.8167 53.3233 13.8167C53.3933 13.8167 53.4634 13.78 53.5335 13.7434C53.6035 13.6701 53.6035 13.5968 53.6035 13.5235C53.6035 13.4502 53.5685 13.3769 53.5335 13.3036C53.5335 13.1937 53.4984 13.157 53.4284 13.157ZM53.4284 13.4502C53.4284 13.4868 53.4284 13.4868 53.3933 13.5235C53.3583 13.5601 53.3233 13.5601 53.2882 13.5235C53.2882 13.5235 53.2532 13.4868 53.2532 13.4502C53.2532 13.4135 53.2532 13.4136 53.2882 13.3769L53.3233 13.3403C53.3583 13.3403 53.3583 13.3403 53.3933 13.3769C53.4284 13.4136 53.4284 13.4502 53.4284 13.4502ZM48.4884 12.7905H49.1191V12.9371L48.7337 13.78L48.5235 13.6701L48.8388 13.0104H48.4884V12.7905ZM53.2882 2.16227H53.043V2.12562C53.043 2.01568 53.078 1.94238 53.1481 1.86908C53.2182 1.79578 53.2882 1.75913 53.3583 1.75913C53.4284 1.75913 53.4634 1.75913 53.4984 1.79578C53.5335 1.83243 53.5685 1.86908 53.6035 1.90573C53.6386 1.94238 53.6386 2.01568 53.6386 2.05232C53.6386 2.12562 53.6386 2.16227 53.6035 2.23557C53.5685 2.30887 53.5335 2.38217 53.4284 2.45546L53.3933 2.49211H53.6386V2.71201H53.043V2.60206L53.3233 2.30887C53.3933 2.23557 53.4284 2.19892 53.4284 2.16227C53.4634 2.12562 53.4634 2.08897 53.4634 2.05232C53.4634 2.01568 53.4634 2.01568 53.4284 1.97903C53.3933 1.94238 53.3583 1.94238 53.3233 1.97903C53.2882 2.05232 53.2882 2.08897 53.2882 2.16227ZM56.8618 9.56539C56.8268 9.52874 56.7567 9.49209 56.7217 9.49209L56.8618 9.1989L56.6516 9.08895L56.4063 9.56539C56.3713 9.63869 56.3713 9.67534 56.3363 9.71199C56.3363 9.74864 56.3363 9.78529 56.3363 9.82194C56.3363 9.89524 56.3713 9.96853 56.4063 10.0418C56.4764 10.1151 56.5465 10.1518 56.6165 10.1518C56.6866 10.1518 56.7567 10.1151 56.8268 10.0785C56.8968 10.0052 56.8968 9.93188 56.8968 9.85859C56.9319 9.71199 56.8968 9.63869 56.8618 9.56539ZM56.7217 9.78529C56.7217 9.82194 56.7217 9.82194 56.6866 9.85859C56.6516 9.89524 56.6165 9.89524 56.5815 9.85859C56.5815 9.85859 56.5465 9.82194 56.5465 9.78529C56.5465 9.74864 56.5465 9.74864 56.5815 9.71199L56.6165 9.67534C56.6516 9.67534 56.6516 9.67534 56.6866 9.71199C56.6866 9.74864 56.7217 9.74864 56.7217 9.78529ZM55.7056 11.068H55.9509V11.2879H55.2852V11.1413L55.5655 10.8481C55.6356 10.7748 55.6706 10.7382 55.6706 10.7015C55.7056 10.6649 55.7056 10.6282 55.7056 10.5916C55.7056 10.5549 55.7056 10.5549 55.6706 10.5183C55.6356 10.4816 55.6005 10.4816 55.5655 10.5183C55.5655 10.5549 55.5305 10.5549 55.5305 10.5916V10.6282H55.3203V10.5916C55.3203 10.4816 55.3553 10.4083 55.4254 10.335C55.4954 10.2617 55.5655 10.2251 55.6356 10.2251C55.7056 10.2251 55.7407 10.2251 55.7757 10.2617C55.8107 10.2984 55.8458 10.335 55.8808 10.3717C55.9158 10.4083 55.9158 10.4816 55.9158 10.5183C55.9158 10.5916 55.9158 10.6282 55.8808 10.7015C55.8458 10.7748 55.8107 10.8481 55.7056 10.9214V11.068ZM56.4764 10.3717C56.4414 10.335 56.3713 10.335 56.3012 10.335C56.1961 10.335 56.1261 10.3717 56.056 10.4816C56.021 10.5549 55.9859 10.6649 55.9859 10.8481C55.9859 10.9581 55.9859 11.068 56.021 11.1413C56.056 11.2146 56.091 11.2513 56.1261 11.2879C56.1611 11.3246 56.2312 11.3245 56.3012 11.3245C56.3713 11.3245 56.4414 11.3246 56.4764 11.2879C56.5114 11.2513 56.5465 11.2146 56.5815 11.1413C56.6165 11.068 56.6165 10.9947 56.6165 10.8481C56.6165 10.7382 56.6165 10.6282 56.5815 10.5549C56.5815 10.4816 56.5465 10.4083 56.4764 10.3717ZM56.4063 10.8481C56.4063 10.9581 56.4063 11.0314 56.3713 11.068C56.3363 11.1047 56.3363 11.1047 56.3012 11.1047C56.2662 11.1047 56.2662 11.1047 56.2312 11.068C56.2312 11.0314 56.1961 10.9947 56.1961 10.8481C56.1961 10.7748 56.1961 10.7015 56.1961 10.6649C56.1961 10.6282 56.2312 10.5916 56.2312 10.5916L56.2662 10.5549C56.2662 10.5549 56.3012 10.5549 56.3363 10.5916C56.4063 10.6282 56.4063 10.7015 56.4063 10.8481ZM54.2342 13.1937C54.3042 13.267 54.3042 13.3403 54.3042 13.4135C54.3042 13.5235 54.2692 13.5968 54.1991 13.6701C54.1291 13.7434 54.059 13.78 53.9539 13.78C53.8838 13.78 53.8137 13.7434 53.7437 13.7067C53.6736 13.6701 53.6386 13.5968 53.6386 13.5235V13.4868H53.8838V13.5235C53.8838 13.5601 53.9188 13.5601 53.9188 13.5601C53.9539 13.5968 53.9889 13.5968 54.024 13.5601C54.059 13.5235 54.059 13.5235 54.059 13.4868C54.059 13.4502 54.059 13.4135 54.024 13.4135C53.9889 13.3769 53.9539 13.3769 53.9188 13.4135L53.8838 13.4502L53.7086 13.4135L53.8137 12.8638H54.2692V13.0837H53.9889V13.157C54.1291 13.1204 54.1991 13.157 54.2342 13.1937ZM49.5044 11.9476L49.6446 11.6544L49.4344 11.5444L49.1891 12.0209C49.1541 12.0942 49.1541 12.1308 49.1191 12.1675C49.1191 12.2041 49.1191 12.2408 49.1191 12.2774C49.1191 12.3507 49.1541 12.424 49.1891 12.4973C49.2592 12.5706 49.3293 12.6073 49.3993 12.6073C49.4694 12.6073 49.5395 12.5706 49.6095 12.534C49.6796 12.4607 49.6796 12.3874 49.6796 12.3141C49.6796 12.2408 49.6446 12.1675 49.6095 12.0942C49.6095 11.9842 49.5395 11.9476 49.5044 11.9476ZM49.5044 12.2408C49.5044 12.2774 49.5044 12.2774 49.4694 12.3141C49.4344 12.3507 49.3993 12.3507 49.3643 12.3141C49.3643 12.3141 49.3293 12.2774 49.3293 12.2408C49.3293 12.2041 49.3293 12.2041 49.3643 12.1675L49.3993 12.1308C49.4344 12.1308 49.4344 12.1308 49.4694 12.1675C49.5044 12.2041 49.5044 12.2041 49.5044 12.2408ZM50.3102 13.2303C50.3453 13.1937 50.3453 13.1937 50.3453 13.157C50.3453 13.1204 50.3803 13.0837 50.3803 13.0471C50.3803 13.0104 50.3803 12.9371 50.3453 12.9005C50.3102 12.8638 50.2752 12.8272 50.2402 12.7905C50.1701 12.7539 50.03 12.7539 49.9599 12.7905C49.9249 12.8272 49.8898 12.8638 49.8548 12.9005C49.8197 12.9371 49.8198 12.9738 49.8198 13.0471C49.8198 13.0837 49.8197 13.1204 49.8548 13.157C49.8548 13.1937 49.8898 13.1937 49.8898 13.2303C49.8548 13.267 49.8548 13.3036 49.8198 13.3036C49.7847 13.3403 49.7847 13.4135 49.7847 13.4502C49.7847 13.5235 49.7847 13.5601 49.8198 13.5968C49.8548 13.6334 49.8898 13.6701 49.9249 13.7067C49.9599 13.7434 50.03 13.7434 50.1 13.7434C50.1701 13.7434 50.2402 13.7434 50.2752 13.7067C50.3102 13.6701 50.3453 13.6334 50.3803 13.5968C50.4153 13.5601 50.4153 13.4868 50.4153 13.4502C50.4153 13.4135 50.4153 13.3403 50.3803 13.3036C50.3803 13.3036 50.3453 13.267 50.3102 13.2303ZM50.1351 13.1204C50.1 13.157 50.065 13.157 50.065 13.1204V13.0837C50.065 13.0471 50.065 13.0471 50.065 13.0471H50.1C50.1351 13.0471 50.1351 13.0471 50.1351 13.0471V13.0837V13.1204ZM50.03 13.3769C50.065 13.3403 50.065 13.3403 50.1 13.3403C50.1351 13.3403 50.1351 13.3403 50.1701 13.3769C50.2051 13.3769 50.2051 13.4135 50.2051 13.4502C50.2051 13.4868 50.2051 13.4868 50.1701 13.5235C50.1351 13.5601 50.065 13.5601 50.03 13.5235C49.9949 13.5235 49.9949 13.4868 49.9949 13.4502C49.9949 13.4135 49.9949 13.4136 50.03 13.3769ZM49.5044 13.157L49.6446 12.8638L49.4344 12.7539L49.1891 13.2303C49.1541 13.3036 49.1541 13.3403 49.1191 13.3769C49.1191 13.4136 49.1191 13.4502 49.1191 13.4868C49.1191 13.5601 49.1541 13.6334 49.1891 13.7067C49.2592 13.78 49.3293 13.8167 49.3993 13.8167C49.4694 13.8167 49.5395 13.78 49.6095 13.7434C49.6796 13.6701 49.6796 13.5968 49.6796 13.5235C49.6796 13.4502 49.6446 13.3769 49.6095 13.3036C49.6095 13.1937 49.5395 13.157 49.5044 13.157ZM49.5044 13.4502C49.5044 13.4868 49.5044 13.4868 49.4694 13.5235C49.4344 13.5601 49.3993 13.5601 49.3643 13.5235C49.3643 13.5235 49.3293 13.4868 49.3293 13.4502C49.3293 13.4135 49.3293 13.4136 49.3643 13.3769L49.3993 13.3403C49.4344 13.3403 49.4344 13.3403 49.4694 13.3769C49.5044 13.4136 49.5044 13.4502 49.5044 13.4502ZM50.8007 13.157L50.9409 12.8638L50.7307 12.7539L50.4854 13.2303C50.4504 13.3036 50.4504 13.3403 50.4153 13.3769C50.4153 13.4136 50.4153 13.4502 50.4153 13.4868C50.4153 13.5601 50.4504 13.6334 50.4854 13.7067C50.5555 13.78 50.6256 13.8167 50.6956 13.8167C50.7657 13.8167 50.8358 13.78 50.9058 13.7434C50.9759 13.6701 50.9759 13.5968 50.9759 13.5235C50.9759 13.4502 50.9409 13.3769 50.9058 13.3036C50.9058 13.1937 50.8708 13.157 50.8007 13.157ZM50.8007 13.4502C50.8007 13.4868 50.8007 13.4868 50.7657 13.5235C50.7307 13.5601 50.6956 13.5601 50.6606 13.5235C50.6606 13.5235 50.6256 13.4868 50.6256 13.4502C50.6256 13.4135 50.6256 13.4136 50.6606 13.3769L50.6956 13.3403C50.7307 13.3403 50.7307 13.3403 50.7657 13.3769C50.8007 13.4136 50.8007 13.4502 50.8007 13.4502ZM52.3773 12.9371L51.9919 13.78L51.7817 13.6701L52.097 13.0104H51.7817V12.7905H52.4123L52.3773 12.9371ZM52.9729 12.7905H52.7627L52.3773 13.3769V13.5968H52.7277V13.78H52.9379V13.5968H53.0079V13.3769H52.9379V12.7905H52.9729ZM52.6576 13.3403L52.7627 13.1937V13.3403H52.6576ZM51.3963 12.7905C51.3263 12.7905 51.2562 12.8272 51.1861 12.8638C51.116 12.9371 51.116 13.0104 51.116 13.0837C51.116 13.157 51.1511 13.2303 51.1861 13.3036C51.2212 13.3403 51.2912 13.3769 51.3263 13.3769L51.1861 13.6701L51.3963 13.78L51.6416 13.3036C51.6766 13.2303 51.6766 13.1937 51.7116 13.157C51.7116 13.1204 51.7116 13.0837 51.7116 13.0471C51.7116 12.9738 51.6766 12.9005 51.6416 12.8272C51.5715 12.8272 51.5014 12.7905 51.3963 12.7905ZM51.5014 13.0837C51.5014 13.1204 51.5014 13.1204 51.4664 13.157C51.4314 13.1937 51.3963 13.1937 51.3613 13.157C51.3613 13.157 51.3263 13.1204 51.3263 13.0837C51.3263 13.0471 51.3263 13.0471 51.3613 13.0104L51.3963 12.9738C51.4314 12.9738 51.4314 12.9738 51.4314 13.0104C51.4664 13.0471 51.5014 13.0837 51.5014 13.0837ZM55.4254 7.36645L55.3903 7.40309H55.6356V7.62299H54.9699V7.47639L55.2502 7.1832C55.3203 7.1099 55.3553 7.07325 55.3553 7.0366C55.3903 6.99995 55.3903 6.96331 55.3903 6.92666C55.3903 6.89001 55.3903 6.89001 55.3553 6.85336C55.3203 6.81671 55.2852 6.81671 55.2502 6.85336C55.2502 6.89001 55.2151 6.89001 55.2151 6.92666V6.9633H55.0049V6.92666C55.0049 6.81671 55.04 6.74341 55.11 6.67011C55.1801 6.59681 55.2502 6.56017 55.3203 6.56017C55.3903 6.56017 55.4254 6.56016 55.4604 6.59681C55.4954 6.63346 55.5305 6.67011 55.5655 6.70676C55.6005 6.74341 55.6005 6.81671 55.6005 6.85336C55.6005 6.92666 55.6005 6.96331 55.5655 7.0366C55.5655 7.21985 55.5305 7.29315 55.4254 7.36645ZM54.6896 5.57064C54.6546 5.64394 54.6196 5.75388 54.6196 5.93713C54.6196 6.04708 54.6196 6.15702 54.6546 6.23032C54.6896 6.30362 54.7247 6.34027 54.7597 6.37692C54.7947 6.41357 54.8648 6.41357 54.9349 6.41357C55.0049 6.41357 55.075 6.41357 55.11 6.37692C55.1451 6.34027 55.1801 6.30362 55.2151 6.23032C55.2502 6.15702 55.2502 6.08373 55.2502 5.93713C55.2502 5.82718 55.2502 5.71724 55.2151 5.64394C55.1801 5.57064 55.1451 5.53399 55.11 5.49734C55.075 5.46069 55.0049 5.46069 54.9349 5.46069C54.8298 5.42404 54.7597 5.49734 54.6896 5.57064ZM55.0049 5.71724C55.0049 5.75388 55.04 5.79053 55.04 5.93713C55.04 6.04708 55.04 6.12038 55.0049 6.15703C54.9699 6.19367 54.9699 6.19367 54.9349 6.19367C54.8998 6.19367 54.8998 6.19367 54.8648 6.15703C54.8648 6.12038 54.8298 6.08373 54.8298 5.93713C54.8298 5.86383 54.8298 5.79053 54.8298 5.75388C54.8298 5.71724 54.8648 5.68059 54.8648 5.68059L54.8998 5.64394C54.9699 5.68059 54.9699 5.68059 55.0049 5.71724ZM53.3583 1.53924C53.4284 1.53924 53.4984 1.50259 53.5685 1.46594C53.6386 1.39264 53.6386 1.31934 53.6386 1.24604C53.6386 1.17275 53.6035 1.09945 53.5685 1.02615C53.5335 0.9895 53.4634 0.952851 53.4284 0.952851L53.5685 0.659658L53.3583 0.549711L53.113 1.02615C53.078 1.09945 53.078 1.1361 53.043 1.17275C53.043 1.20939 53.043 1.24604 53.043 1.28269C53.043 1.35599 53.078 1.42929 53.113 1.50259C53.2181 1.50259 53.2882 1.53924 53.3583 1.53924ZM53.2882 1.20939C53.2882 1.17275 53.2882 1.17275 53.3233 1.1361L53.3583 1.09945C53.3933 1.09945 53.3933 1.09945 53.4284 1.1361C53.4284 1.1361 53.4634 1.17275 53.4634 1.20939C53.4634 1.24604 53.4634 1.24604 53.4284 1.28269C53.3933 1.31934 53.3583 1.31934 53.3233 1.28269C53.2882 1.28269 53.2882 1.24604 53.2882 1.20939ZM54.024 6.63346L53.7787 7.1099C53.7437 7.1832 53.7437 7.21985 53.7086 7.2565C53.7086 7.29315 53.7086 7.3298 53.7086 7.36645C53.7086 7.43974 53.7437 7.51304 53.7787 7.58634C53.8488 7.65964 53.9188 7.69629 53.9889 7.69629C54.059 7.69629 54.1291 7.65964 54.1991 7.62299C54.2692 7.54969 54.2692 7.47639 54.2692 7.40309C54.2692 7.3298 54.2342 7.2565 54.1991 7.1832C54.1641 7.14655 54.094 7.1099 54.059 7.1099L54.1991 6.81671L54.024 6.63346ZM54.094 7.3298C54.094 7.36645 54.094 7.36645 54.059 7.40309C54.024 7.43974 53.9889 7.43974 53.9539 7.40309C53.9539 7.40309 53.9188 7.36645 53.9188 7.3298C53.9188 7.29315 53.9189 7.29315 53.9539 7.2565L53.9889 7.21985C54.024 7.21985 54.024 7.21985 54.059 7.2565C54.094 7.29315 54.094 7.3298 54.094 7.3298ZM55.3203 4.21462L55.075 4.69106C55.04 4.76436 55.04 4.80101 55.0049 4.83766C55.0049 4.87431 55.0049 4.91095 55.0049 4.9476C55.0049 5.0209 55.04 5.0942 55.075 5.1675C55.1451 5.2408 55.2151 5.27745 55.2852 5.27745C55.3553 5.27745 55.4254 5.2408 55.4954 5.20415C55.5655 5.13085 55.5655 5.05755 55.5655 4.98425C55.5655 4.91095 55.5305 4.83766 55.4954 4.76436C55.4604 4.72771 55.3903 4.69106 55.3553 4.69106L55.4954 4.39787L55.3203 4.21462ZM55.3903 4.91095C55.3903 4.9476 55.3903 4.9476 55.3553 4.98425C55.3203 5.0209 55.2852 5.0209 55.2502 4.98425C55.2502 4.98425 55.2151 4.9476 55.2151 4.91095C55.2151 4.87431 55.2151 4.87431 55.2502 4.83766L55.2852 4.80101C55.3202 4.80101 55.3203 4.80101 55.3553 4.83766C55.3903 4.83766 55.3903 4.87431 55.3903 4.91095ZM54.3743 6.15703L54.3393 6.19367H54.5845V6.41357H53.9188V6.26697L54.1991 5.97378C54.2692 5.90048 54.3042 5.86383 54.3042 5.82718C54.3393 5.79053 54.3393 5.75388 54.3393 5.71724C54.3393 5.68059 54.3393 5.68059 54.3042 5.64394C54.2692 5.60729 54.2342 5.60729 54.1991 5.64394C54.1991 5.68059 54.1641 5.68059 54.1641 5.71724V5.75388H53.9539V5.71724C53.9539 5.60729 53.9889 5.53399 54.059 5.46069C54.1291 5.38739 54.1991 5.35074 54.2692 5.35074C54.3393 5.35074 54.3743 5.35074 54.4093 5.38739C54.4444 5.42404 54.4794 5.46069 54.5144 5.49734C54.5495 5.53399 54.5495 5.60729 54.5495 5.64394C54.5495 5.71724 54.5495 5.75388 54.5144 5.82718C54.5144 5.97378 54.4444 6.04708 54.3743 6.15703ZM53.3933 8.20938C53.3933 8.28267 53.4284 8.35597 53.4634 8.42927C53.4984 8.46592 53.5685 8.50257 53.6035 8.50257L53.4634 8.79576L53.6736 8.90571L53.9188 8.42927C53.9539 8.35597 53.9539 8.31932 53.9889 8.28267C53.9889 8.24602 53.9889 8.20938 53.9889 8.17273C53.9889 8.09943 53.9539 8.02613 53.9188 7.95283C53.8488 7.87953 53.7787 7.84288 53.7086 7.84288C53.6386 7.84288 53.5685 7.87953 53.4984 7.91618C53.4284 8.02613 53.3933 8.09943 53.3933 8.20938ZM53.6386 8.20938C53.6386 8.17273 53.6386 8.17273 53.6736 8.13608L53.7086 8.09943C53.7437 8.09943 53.7437 8.09943 53.7437 8.13608C53.7437 8.13608 53.7787 8.17273 53.7787 8.20938C53.7787 8.24602 53.7787 8.24602 53.7437 8.28267C53.7086 8.31932 53.6736 8.31932 53.6386 8.28267C53.6386 8.24602 53.6386 8.20938 53.6386 8.20938ZM54.3393 8.86906C54.2692 8.86906 54.1991 8.83241 54.1291 8.79576C54.059 8.75911 54.024 8.68581 54.024 8.61252V8.57587H54.2692V8.61252C54.2692 8.64916 54.3042 8.64917 54.3042 8.64917C54.3393 8.68581 54.3743 8.68581 54.4093 8.64917C54.4444 8.61252 54.4444 8.61252 54.4444 8.57587C54.4444 8.53922 54.4444 8.50257 54.4093 8.50257C54.3743 8.46592 54.3393 8.46592 54.3042 8.50257L54.2692 8.53922L54.094 8.50257L54.1991 7.95283H54.6546V8.17273H54.3743V8.24602C54.4444 8.24602 54.5495 8.28267 54.5845 8.35597C54.6546 8.42927 54.6546 8.50257 54.6546 8.57587C54.6546 8.68581 54.6196 8.75911 54.5495 8.83241C54.5144 8.83241 54.4093 8.86906 54.3393 8.86906ZM54.8648 4.25127C54.8298 4.21462 54.7597 4.21462 54.6896 4.21462C54.5845 4.21462 54.5144 4.25127 54.4444 4.36122C54.4093 4.43452 54.3743 4.54446 54.3743 4.72771C54.3743 4.83766 54.3743 4.9476 54.4093 5.0209C54.4444 5.0942 54.4794 5.13085 54.5144 5.1675C54.5495 5.20415 54.6195 5.20415 54.6896 5.20415C54.7597 5.20415 54.8298 5.20415 54.8648 5.1675C54.8998 5.13085 54.9349 5.0942 54.9699 5.0209C55.0049 4.9476 55.0049 4.87431 55.0049 4.72771C55.0049 4.61776 55.0049 4.50781 54.9699 4.43452C54.9349 4.36122 54.8998 4.28792 54.8648 4.25127ZM54.7947 4.72771C54.7947 4.83766 54.7947 4.91095 54.7597 4.9476C54.7247 4.98425 54.7247 4.98425 54.6896 4.98425C54.6546 4.98425 54.6546 4.98425 54.6196 4.9476C54.6196 4.91095 54.5845 4.87431 54.5845 4.72771C54.5845 4.65441 54.5845 4.58111 54.5845 4.54446C54.5845 4.50781 54.6196 4.47117 54.6196 4.47117L54.6546 4.43452C54.6546 4.43452 54.6896 4.43452 54.7247 4.47117C54.7597 4.50782 54.7947 4.58111 54.7947 4.72771ZM54.2342 10.0052C54.3042 9.93188 54.3042 9.85859 54.3042 9.78529C54.3042 9.71199 54.2692 9.63869 54.2342 9.56539C54.1991 9.52874 54.1291 9.49209 54.094 9.49209L54.2342 9.1989L54.024 9.08895L53.7787 9.56539C53.7437 9.63869 53.7437 9.67534 53.7086 9.71199C53.7086 9.74864 53.7086 9.78529 53.7086 9.82194C53.7086 9.89524 53.7437 9.96853 53.7787 10.0418C53.8488 10.1151 53.9188 10.1518 53.9889 10.1518C54.094 10.1151 54.1641 10.0785 54.2342 10.0052ZM53.9539 9.78529C53.9539 9.74864 53.9539 9.74864 53.9889 9.71199L54.024 9.67534C54.059 9.67534 54.059 9.67534 54.094 9.71199C54.094 9.71199 54.1291 9.74864 54.1291 9.78529C54.1291 9.82194 54.1291 9.82194 54.094 9.85859C54.059 9.89524 54.024 9.89524 53.9889 9.85859C53.9539 9.82194 53.9539 9.82194 53.9539 9.78529ZM55.7757 8.57587L55.7407 8.61252H55.9859V8.83241H55.3203V8.68581L55.6005 8.39262C55.6706 8.31932 55.7056 8.28267 55.7056 8.24602C55.7407 8.20937 55.7407 8.17273 55.7407 8.13608C55.7407 8.09943 55.7407 8.09943 55.7056 8.06278C55.6706 8.02613 55.6356 8.02613 55.6005 8.06278C55.6005 8.09943 55.5655 8.09943 55.5655 8.13608V8.17273H55.3553V8.13608C55.3553 8.02613 55.3903 7.95283 55.4604 7.87953C55.5305 7.80623 55.6005 7.76959 55.6706 7.76959C55.7407 7.76959 55.7757 7.76959 55.8107 7.80624C55.8458 7.84289 55.8808 7.87953 55.9158 7.91618C55.9509 7.95283 55.9509 8.02613 55.9509 8.06278C55.9509 8.13608 55.9509 8.17273 55.9158 8.24602C55.8808 8.42927 55.8458 8.50257 55.7757 8.57587ZM54.059 3.0052L53.6736 3.59159V3.81148H54.024V3.99473H54.2342V3.81148H54.3042V3.59159H54.2342V3.04185H54.059V3.0052ZM53.9539 3.55494L54.059 3.40834V3.55494H53.9539ZM55.3903 3.73818C55.4254 3.70153 55.4254 3.70153 55.4254 3.66489C55.4254 3.62824 55.4254 3.59159 55.3903 3.59159C55.3553 3.55494 55.3202 3.55494 55.2852 3.59159L55.2502 3.62824L55.075 3.59159L55.1801 3.04185H55.6356V3.26174H55.3553V3.33504C55.4254 3.33504 55.5305 3.37169 55.5655 3.44499C55.6356 3.51829 55.6356 3.59159 55.6356 3.66489C55.6356 3.77483 55.6005 3.84813 55.5305 3.92143C55.4604 3.99473 55.3903 4.03138 55.2852 4.03138C55.2151 4.03138 55.1451 3.99473 55.075 3.95808C55.0049 3.92143 54.9699 3.84813 54.9699 3.77483V3.73818H55.2151V3.77483C55.2151 3.81148 55.2502 3.81148 55.2502 3.81148C55.3203 3.77483 55.3553 3.77483 55.3903 3.73818ZM55.2502 8.86906V8.68581H55.3203V8.46592H55.2502V7.91618H55.04L54.6546 8.50257V8.72246H55.0049V8.90571H55.2502V8.86906ZM54.9349 8.46592L55.04 8.31932V8.46592H54.9349ZM54.6896 10.1151L54.9349 9.63869C54.9699 9.56539 54.9699 9.52874 55.0049 9.49209C55.0049 9.45545 55.0049 9.4188 55.0049 9.38215C55.0049 9.30885 54.9699 9.23555 54.9349 9.16225C54.8648 9.08895 54.7947 9.05231 54.7247 9.05231C54.6546 9.05231 54.5845 9.08895 54.5144 9.1256C54.4444 9.1989 54.4444 9.2722 54.4444 9.3455C54.4444 9.4188 54.4794 9.49209 54.5144 9.56539C54.5495 9.60204 54.6196 9.63869 54.6546 9.63869L54.5144 9.93188L54.6896 10.1151ZM54.6196 9.4188C54.6196 9.38215 54.6196 9.38215 54.6546 9.3455L54.6896 9.30885C54.7247 9.30885 54.7247 9.30885 54.7247 9.3455C54.7247 9.3455 54.7597 9.38215 54.7597 9.4188C54.7597 9.45545 54.7597 9.45545 54.7247 9.49209C54.6896 9.52874 54.6546 9.52874 54.6196 9.49209C54.6196 9.45545 54.6196 9.45545 54.6196 9.4188ZM53.6736 5.82718C53.7086 5.79053 53.7086 5.75388 53.7086 5.71724C53.7086 5.68059 53.7086 5.68059 53.6736 5.64394C53.6386 5.60729 53.6035 5.60729 53.5685 5.64394C53.5685 5.68059 53.5335 5.68059 53.5335 5.71724V5.75388H53.3233V5.71724C53.3233 5.60729 53.3583 5.53399 53.4284 5.46069C53.4984 5.38739 53.5685 5.35074 53.6386 5.35074C53.7086 5.35074 53.7437 5.35074 53.7787 5.38739C53.8137 5.42404 53.8488 5.46069 53.8838 5.49734C53.9188 5.53399 53.9188 5.60729 53.9188 5.64394C53.9188 5.71724 53.9188 5.75388 53.8838 5.82718C53.8488 5.90048 53.8137 5.97378 53.7086 6.04708L53.6736 6.08373H53.9188V6.30362H53.2532V6.26697L53.5335 5.97378C53.6386 5.93713 53.6736 5.86383 53.6736 5.82718ZM54.059 4.61776C54.094 4.58111 54.094 4.54446 54.094 4.50781C54.094 4.47117 54.094 4.47117 54.059 4.43452C54.024 4.39787 53.9889 4.39787 53.9539 4.43452C53.9539 4.47117 53.9188 4.47117 53.9188 4.50781V4.54446H53.7086V4.50781C53.7086 4.39787 53.7437 4.32457 53.8137 4.25127C53.8838 4.17797 53.9539 4.14132 54.024 4.14132C54.094 4.14132 54.1291 4.14132 54.1641 4.17797C54.1991 4.21462 54.2342 4.25127 54.2692 4.28792C54.3042 4.32457 54.3042 4.39787 54.3042 4.43452C54.3042 4.50781 54.3042 4.54446 54.2692 4.61776C54.2342 4.69106 54.1991 4.76436 54.094 4.83766L54.059 4.87431H54.3042V5.0942H53.6386V4.9476L53.9188 4.65441C54.024 4.69106 54.059 4.65441 54.059 4.61776ZM53.7086 11.3245L53.9539 10.8481C53.9889 10.7748 53.9889 10.7382 54.024 10.7015C54.024 10.6649 54.024 10.6282 54.024 10.5916C54.024 10.5183 53.9889 10.445 53.9539 10.3717C53.8838 10.2984 53.8137 10.2617 53.7437 10.2617C53.6736 10.2617 53.6035 10.2984 53.5335 10.335C53.4634 10.4083 53.4634 10.4816 53.4634 10.5549C53.4634 10.6282 53.4984 10.7015 53.5335 10.7748C53.5685 10.8115 53.6386 10.8481 53.6736 10.8481L53.5335 11.1413L53.7086 11.3245ZM53.6386 10.6282C53.6386 10.5916 53.6386 10.5916 53.6736 10.5549L53.7086 10.5183C53.7437 10.5183 53.7437 10.5183 53.7437 10.5549C53.7437 10.5549 53.7787 10.5916 53.7787 10.6282C53.7787 10.6649 53.7787 10.6649 53.7437 10.7015C53.7086 10.7382 53.6736 10.7382 53.6386 10.7015C53.6386 10.7015 53.6386 10.6649 53.6386 10.6282ZM54.5144 6.67011H54.9699V6.89001H54.6896V6.9633C54.7597 6.9633 54.8648 6.99996 54.8998 7.07325C54.9699 7.14655 54.9699 7.21985 54.9699 7.29315C54.9699 7.40309 54.9349 7.47639 54.8648 7.54969C54.7947 7.62299 54.7247 7.65964 54.6196 7.65964C54.5495 7.65964 54.4794 7.62299 54.4093 7.58634C54.3393 7.54969 54.3042 7.47639 54.3042 7.40309V7.36645H54.5495V7.40309C54.5495 7.43974 54.5845 7.43974 54.5845 7.43974C54.6195 7.47639 54.6546 7.47639 54.6896 7.43974C54.7247 7.4031 54.7247 7.4031 54.7247 7.36645C54.7247 7.3298 54.7247 7.29315 54.6896 7.29315C54.6546 7.2565 54.6195 7.2565 54.5845 7.29315L54.5495 7.3298L54.3743 7.29315L54.5144 6.67011ZM55.3903 2.01567H55.075V1.79578H55.7056V1.94238L55.3203 2.78531L55.11 2.67536L55.3903 2.01567ZM54.6896 10.9947V10.9581H54.8998V10.9947C54.8998 11.0314 54.8998 11.068 54.9349 11.068C54.9699 11.1047 55.04 11.1047 55.075 11.068C55.11 11.068 55.11 11.0314 55.11 10.9947C55.11 10.9581 55.11 10.9581 55.075 10.9214C55.04 10.8848 55.0049 10.8848 54.9699 10.8848H54.9349V10.6649H54.9699C55.0049 10.6649 55.04 10.6649 55.04 10.6649C55.04 10.6649 55.075 10.6649 55.075 10.6282V10.5916V10.5549C55.075 10.5549 55.075 10.5549 55.04 10.5549H55.0049L54.9699 10.5916V10.6282H54.7597V10.5916C54.7597 10.5183 54.7947 10.445 54.8298 10.4083C54.8998 10.335 54.9699 10.2984 55.04 10.2984C55.11 10.2984 55.1801 10.335 55.2502 10.3717C55.3203 10.4083 55.3203 10.4816 55.3203 10.5549C55.3203 10.5916 55.3202 10.6282 55.2852 10.6649C55.2852 10.7015 55.2502 10.7015 55.2502 10.7015C55.2852 10.7015 55.3203 10.7382 55.3203 10.7748C55.3553 10.8115 55.3553 10.8848 55.3553 10.9214C55.3553 10.9947 55.3203 11.068 55.2502 11.1413C55.1801 11.2146 55.11 11.2513 55.0049 11.2513C54.8998 11.2513 54.8298 11.2146 54.7947 11.178C54.7597 11.1413 54.6896 11.1047 54.6896 10.9947ZM55.6706 9.2722L55.2852 10.1151L55.075 10.0052L55.3903 9.3455H55.075V9.1256H55.7056L55.6706 9.2722ZM54.7247 2.01567H54.4093V1.79578H55.04V1.94238L54.6546 2.78531L54.4444 2.67536L54.7247 2.01567ZM55.9158 3.37169H55.7056V3.33504C55.7056 3.2251 55.7407 3.1518 55.8107 3.0785C55.8808 3.0052 55.9509 2.96855 56.021 2.96855C56.091 2.96855 56.1261 2.96855 56.1611 3.0052C56.1961 3.04185 56.2312 3.0785 56.2662 3.11515C56.3012 3.1518 56.3012 3.2251 56.3012 3.26174C56.3012 3.33504 56.3012 3.37169 56.2662 3.44499C56.2312 3.51829 56.1961 3.59159 56.091 3.66489L56.056 3.70153H56.3012V3.92143H55.6356V3.77483L55.9158 3.48164C55.9859 3.40834 56.021 3.37169 56.021 3.33504C56.056 3.29839 56.056 3.26174 56.056 3.2251C56.056 3.18845 56.056 3.18845 56.021 3.1518C55.9859 3.11515 55.9509 3.11515 55.9158 3.1518C55.9158 3.26174 55.9158 3.29839 55.9158 3.37169ZM54.094 1.28269C54.1291 1.24604 54.1291 1.24604 54.1291 1.20939C54.1291 1.17275 54.1291 1.1361 54.094 1.1361C54.059 1.09945 54.024 1.09945 53.9889 1.1361L53.9539 1.17275L53.7437 1.1361L53.8488 0.58636H54.3042V0.806254H54.024V0.879553C54.094 0.879553 54.1991 0.916202 54.2342 0.9895C54.3042 1.0628 54.3042 1.1361 54.3042 1.20939C54.3042 1.31934 54.2692 1.39264 54.1991 1.46594C54.1291 1.53924 54.059 1.57589 53.9539 1.57589C53.8838 1.57589 53.8137 1.53924 53.7437 1.50259C53.6736 1.46594 53.6386 1.39264 53.6386 1.31934V1.28269H53.8838V1.31934C53.8838 1.35599 53.9188 1.35599 53.9188 1.35599C53.9889 1.31934 54.059 1.31934 54.094 1.28269ZM54.1991 1.83243C54.1641 1.79578 54.094 1.79578 54.024 1.79578C53.9189 1.79578 53.8488 1.83243 53.7787 1.94238C53.7437 2.01568 53.7086 2.12562 53.7086 2.30887C53.7086 2.41882 53.7086 2.52876 53.7437 2.60206C53.7787 2.67536 53.8137 2.71201 53.8488 2.74866C53.8838 2.78531 53.9539 2.78531 54.024 2.78531C54.094 2.78531 54.1641 2.78531 54.1991 2.74866C54.2342 2.71201 54.2692 2.67536 54.3042 2.60206C54.3393 2.52876 54.3393 2.45546 54.3393 2.30887C54.3393 2.19892 54.3393 2.08897 54.3042 2.01567C54.3042 1.90573 54.2342 1.86908 54.1991 1.83243ZM54.1291 2.27222C54.1291 2.38217 54.1291 2.45546 54.094 2.49211C54.059 2.52876 54.059 2.52876 54.024 2.52876C53.9889 2.52876 53.9889 2.52876 53.9539 2.49211C53.9539 2.45546 53.9188 2.41882 53.9188 2.27222C53.9188 2.19892 53.9188 2.12562 53.9188 2.08897C53.9188 2.05232 53.9539 2.01567 53.9539 2.01567L53.9889 1.97903C53.9889 1.97903 54.024 1.97903 54.059 2.01567C54.094 2.08897 54.1291 2.12562 54.1291 2.27222ZM54.6896 3.99473C54.7597 3.99473 54.8298 3.95808 54.8998 3.92143C54.9699 3.84813 54.9699 3.77483 54.9699 3.70153C54.9699 3.62824 54.9349 3.55494 54.8998 3.48164C54.8648 3.44499 54.7947 3.40834 54.7597 3.40834L54.8998 3.11515L54.6896 3.0052L54.4444 3.48164C54.4093 3.55494 54.4093 3.59159 54.3743 3.62824C54.3743 3.66489 54.3743 3.70153 54.3743 3.73818C54.3743 3.81148 54.4093 3.88478 54.4444 3.95808C54.5144 3.95808 54.5845 3.99473 54.6896 3.99473ZM54.5845 3.66489C54.5845 3.62824 54.5845 3.62824 54.6196 3.59159L54.6546 3.55494C54.6896 3.55494 54.6896 3.55494 54.7247 3.59159C54.7247 3.59159 54.7597 3.62824 54.7597 3.66489C54.7597 3.70153 54.7597 3.70153 54.7247 3.73818C54.6896 3.77483 54.6546 3.77483 54.6196 3.73818C54.6196 3.70153 54.5845 3.70153 54.5845 3.66489ZM52.3072 12.534C52.3773 12.534 52.4474 12.4973 52.5174 12.4607C52.5875 12.3874 52.5875 12.3141 52.5875 12.2408C52.5875 12.1675 52.5525 12.0942 52.5174 12.0209C52.4824 11.9842 52.4123 11.9476 52.3773 11.9476L52.5174 11.6544L52.3072 11.5444L52.062 12.0209C52.027 12.0942 52.027 12.1308 51.9919 12.1675C51.9919 12.2041 51.9919 12.2408 51.9919 12.2774C51.9919 12.3507 52.027 12.424 52.062 12.4973C52.1671 12.534 52.2372 12.534 52.3072 12.534ZM52.2372 12.2408C52.2372 12.2041 52.2372 12.2041 52.2722 12.1675L52.3072 12.1308C52.3423 12.1308 52.3423 12.1308 52.3773 12.1675C52.3773 12.1675 52.4123 12.2041 52.4123 12.2408C52.4123 12.2774 52.4123 12.2774 52.3773 12.3141C52.3423 12.3507 52.3072 12.3507 52.2722 12.3141C52.2372 12.2774 52.2372 12.2774 52.2372 12.2408ZM52.1671 5.46069H52.4474V6.41357H52.2372V5.68059H52.027L52.1671 5.46069ZM53.078 3.0052H53.7086V3.1518L53.3233 3.99473L53.113 3.88478L53.4284 3.2251H53.113V3.0052H53.078ZM54.6896 10.4816L54.3042 11.3245L54.094 11.2146L54.4093 10.5549H54.094V10.335H54.7247L54.6896 10.4816ZM52.6926 5.46069H53.3233V5.60729L52.9379 6.45022L52.7277 6.34027L53.043 5.68059H52.6926V5.46069ZM54.5845 12.534H53.9188V12.3874L54.1991 12.0942C54.2692 12.0209 54.3042 11.9842 54.3042 11.9476C54.3393 11.9109 54.3393 11.8743 54.3393 11.8376C54.3393 11.801 54.3393 11.801 54.3042 11.7643C54.2692 11.7277 54.2342 11.7277 54.1991 11.7643C54.1991 11.801 54.1641 11.801 54.1641 11.8376V11.8743H53.9539V11.8376C53.9539 11.7277 53.9889 11.6544 54.059 11.5811C54.1291 11.5078 54.1991 11.4711 54.2692 11.4711C54.3393 11.4711 54.3743 11.4711 54.4093 11.5078C54.4444 11.5444 54.4794 11.5811 54.5144 11.6177C54.5495 11.6544 54.5495 11.7277 54.5495 11.7643C54.5495 11.8376 54.5495 11.8743 54.5144 11.9476C54.4794 12.0209 54.4444 12.0942 54.3393 12.1675L54.3042 12.2041H54.5495V12.534H54.5845ZM52.6576 7.65964L52.4474 7.54969L52.7627 6.89001H52.4474V6.67011H53.078V6.81671L52.6576 7.65964ZM53.3933 7.62299H53.6035V7.43974H53.6736V7.21985H53.6035V6.67011H53.3933L53.0079 7.2565V7.47639H53.3583V7.62299H53.3933ZM53.3233 7.21985L53.4284 7.07325V7.21985H53.3233Z" fill="white"/>
</svg>
